<?xml version="1.0" encoding="utf-8"?>
<!-- Generator: Adobe Illustrator 24.0.2, SVG Export Plug-In . SVG Version: 6.00 Build 0)  -->
<svg version="1.1" id="Layer_1" xmlns="http://www.w3.org/2000/svg" xmlns:xlink="http://www.w3.org/1999/xlink" x="0px" y="0px"
	 viewBox="0 0 512 512" style="enable-background:new 0 0 512 512;" xml:space="preserve">
<path d="M256,345.8L37.4,127.2c-3.5-3.5-8.1-5.4-13-5.4s-9.5,1.9-13,5.4c-3.5,3.5-5.4,8.1-5.4,13s1.9,9.5,5.4,13l231.7,231.6
	c7.1,7.1,18.8,7.1,26,0l231.5-231.6c3.4-3.4,5.4-8.1,5.4-12.9c0-4.9-1.9-9.7-5.4-12.9c-3.5-3.5-8.1-5.4-13-5.4c-4.9,0-9.5,2-13,5.4
	L256,345.8z"/>
</svg>
