<?xml version="1.0" encoding="utf-8"?>
<!-- Generator: Adobe Illustrator 24.0.2, SVG Export Plug-In . SVG Version: 6.00 Build 0)  -->
<svg version="1.1" id="Layer_1" xmlns="http://www.w3.org/2000/svg" xmlns:xlink="http://www.w3.org/1999/xlink" x="0px" y="0px"
	 viewBox="0 0 512 512" style="enable-background:new 0 0 512 512;" xml:space="preserve">
<path d="M384.9,243.1L153.2,11.4c-3.5-3.5-8.1-5.4-13-5.4s-9.5,2-13,5.4c-3.5,3.5-5.4,8.1-5.4,13s2,9.5,5.4,13L345.9,256
	L127.2,474.6c-3.5,3.5-5.4,8.1-5.4,13c0,4.9,2,9.5,5.4,13c3.4,3.4,8.1,5.4,12.9,5.4c4.9,0,9.7-2,12.9-5.4L384.7,269
	c3.5-3.4,5.4-8,5.5-12.9C390.1,251.1,388.3,246.5,384.9,243.1z"/>
</svg>
