<?xml version="1.0" encoding="utf-8"?>
<!-- Generator: Adobe Illustrator 24.0.2, SVG Export Plug-In . SVG Version: 6.00 Build 0)  -->
<svg version="1.1" id="Layer_1" xmlns="http://www.w3.org/2000/svg" xmlns:xlink="http://www.w3.org/1999/xlink" x="0px" y="0px"
	 viewBox="0 0 512 512" enable-background="new 0 0 512 512" xml:space="preserve">
<path d="M459.8,317L281.2,495.5c-13.9,14-36.6,14-50.5,0L52.2,317c-14-14-14-36.6,0-50.5c14-13.9,36.6-14,50.5,0l117.6,117.6V41.7
	C220.3,22,236.3,6,256,6c19.7,0,35.7,16,35.7,35.7v342.4l117.6-117.6c7-7,16.1-10.5,25.2-10.5s18.3,3.5,25.2,10.5
	C473.8,280.4,473.8,303,459.8,317z"/>
</svg>
