<?xml version="1.0" encoding="utf-8"?>
<!-- Generator: Adobe Illustrator 24.0.2, SVG Export Plug-In . SVG Version: 6.00 Build 0)  -->
<svg version="1.1" id="Layer_1" xmlns="http://www.w3.org/2000/svg" xmlns:xlink="http://www.w3.org/1999/xlink" x="0px" y="0px"
	 viewBox="0 0 512 512" style="enable-background:new 0 0 512 512;" xml:space="preserve">
<path d="M474.6,384.6c3.5,3.4,8.1,5.4,13,5.4c4.9,0,9.5-1.9,13-5.4c3.4-3.2,5.4-8,5.4-12.9c0-4.8-2-9.5-5.4-12.9L269.1,127.2
	c-7.2-7.1-18.9-7.1-26,0L11.4,358.8c-3.4,3.5-5.4,8.1-5.4,13s1.9,9.5,5.4,13c3.5,3.4,8.1,5.4,13,5.4s9.5-1.9,13-5.4L256,166.2
	L474.6,384.6z"/>
</svg>
