<?xml version="1.0" encoding="utf-8"?>
<!-- Generator: Adobe Illustrator 24.0.2, SVG Export Plug-In . SVG Version: 6.00 Build 0)  -->
<svg version="1.1" id="Layer_1" xmlns="http://www.w3.org/2000/svg" xmlns:xlink="http://www.w3.org/1999/xlink" x="0px" y="0px"
	 viewBox="0 0 512 512" style="enable-background:new 0 0 512 512;" xml:space="preserve">
<g>
	<path d="M166.1,256L384.8,37.4c3.5-3.5,5.4-8.1,5.4-13s-2-9.5-5.4-13c-3.5-3.5-8.1-5.4-13-5.4c-4.9,0-9.5,2-13,5.4L127.1,243.1
		c-7.1,7.1-7.1,18.8,0,26l231.6,231.5c3.4,3.4,8.1,5.4,12.9,5.4c4.9,0,9.7-2,12.9-5.4c3.5-3.5,5.4-8.1,5.4-13c0-4.9-2-9.5-5.4-13
		L166.1,256z"/>
</g>
</svg>
