<?xml version="1.0" encoding="utf-8"?>
<!-- Generator: Adobe Illustrator 24.1.1, SVG Export Plug-In . SVG Version: 6.00 Build 0)  -->
<svg version="1.1" id="Layer_1" xmlns="http://www.w3.org/2000/svg" xmlns:xlink="http://www.w3.org/1999/xlink" x="0px" y="0px"
	 viewBox="0 0 512 512" style="enable-background:new 0 0 512 512;" xml:space="preserve">
<style type="text/css">
	.st0{fill:#474A56;}
</style>
<g>
	<path class="st0" d="M436.2,189.6c-4.4,0-7,0-171,72.3l22-180.9c1.2-9.4-5.5-18-14.9-19.1c-9-1.1-18.2-1.7-27.2-1.7
		c-112.3,0-207.3,84.2-221,195.9c-14.9,122,72.3,233.3,194.3,248.1c9,1.1,18.2,1.7,27.2,1.7l0,0c112.3,0,207.3-84.2,220.9-195.9
		c4.5-37.2-0.4-75.1-14.3-109.8C449.5,193.8,443.2,189.6,436.2,189.6z M432.4,306c-11.5,94.5-91.9,165.7-186.9,165.7
		c-7.7,0-15.4-0.5-23.1-1.4C119.3,457.7,45.6,363.5,58.2,260.3C69.7,165.8,150,94.6,245,94.6c2,0,4,0,5.9,0.1l-23.5,193.1
		c-0.7,6.1,1.9,12.2,6.8,15.9c5,3.7,11.5,4.4,17.1,1.9c55.6-24.5,140-61.6,174.5-76.2C433.3,254,435.6,280.2,432.4,306z"/>
	<path class="st0" d="M488.7,118.6c-26-61.2-83-104.3-148.9-112.5c-5.6-0.7-10.8,3.3-11.5,9l-21.7,175c-0.4,3.6,1.1,7.2,4,9.5
		c1.8,1.4,4,2.1,6.2,2.1c1.4,0,2.7-0.3,4-0.8l162.4-68.7c2.5-1.1,4.5-3.1,5.5-5.6C489.8,123.9,489.8,121.1,488.7,118.6z"/>
</g>
</svg>
