<?xml version="1.0" encoding="utf-8"?>
<!-- Generator: Adobe Illustrator 24.1.1, SVG Export Plug-In . SVG Version: 6.00 Build 0)  -->
<svg version="1.1" id="Layer_1" xmlns="http://www.w3.org/2000/svg" xmlns:xlink="http://www.w3.org/1999/xlink" x="0px" y="0px"
	 viewBox="0 0 512 512" style="enable-background:new 0 0 512 512;" xml:space="preserve">
<style type="text/css">
	.st0{fill:#474A56;}
</style>
<path class="st0" d="M395.2,12.8c-3.7-3.7-8.7-5.8-13.9-5.8H131c-10.8,0-19.7,8.8-19.7,19.7l0,460.6c0,7.9,4.8,15.1,12.1,18.2
	c7.3,3.1,15.8,1.4,21.4-4.3l111.2-111l111.2,111c5.6,5.6,14.1,7.3,21.4,4.3c2.4-1,4.6-2.5,6.4-4.3c3.6-3.6,5.8-8.6,5.7-13.9l0-460.6
	C400.9,21.5,398.8,16.5,395.2,12.8z"/>
</svg>
