<?xml version="1.0" encoding="utf-8"?>
<!-- Generator: Adobe Illustrator 24.1.1, SVG Export Plug-In . SVG Version: 6.00 Build 0)  -->
<svg version="1.1" id="Layer_1" xmlns="http://www.w3.org/2000/svg" xmlns:xlink="http://www.w3.org/1999/xlink" x="0px" y="0px"
	 viewBox="0 0 512 512" style="enable-background:new 0 0 512 512;" xml:space="preserve">
<style type="text/css">
	.st0{fill:#474A56;}
</style>
<path class="st0" d="M495.5,140.8c-7.7-8-18.6-12.6-30-12.6h-39.2H206.7v-7.6c0-22.5-18.3-40.8-40.8-40.8H65.2
	c-22.5,0-40.8,18.3-40.8,40.8V135c-11.1,7.4-18.2,20-18.2,34v227.7c0,0,0,0.1,0,0.2l0,0.1c0,22.4,18.3,40.5,40.8,40.5h379.2
	c1.4,0,2.8-0.1,4.1-0.2c0.2,0,0.5-0.1,0.7-0.1c1.1-0.1,2.2-0.3,3.3-0.5c0.2,0,0.3-0.1,0.5-0.1c1.2-0.2,2.3-0.5,3.4-0.9
	c0.1,0,0.1,0,0.2-0.1c14-4.4,24.7-16.1,27.7-30.6c0,0,0-0.1,0-0.1c0.3-1.2,0.4-2.3,0.6-3.6c0-0.3,0.1-0.6,0.1-1
	c0.1-0.6,0.1-1.1,0.2-1.6l39-227l0.2-2.2C506.7,158.7,502.8,148.5,495.5,140.8z M432.7,394l-0.2,2.9c0,3.3-2.8,6-6.3,6H47.1
	c-3.1,0-5.7-2.2-6.2-5l38.9-226.3c0.5-3.1,1.5-8.9,12.4-8.9h373.3c2,0,3.9,0.7,5.1,2c0.7,0.7,1.1,1.6,1.2,2.6L432.7,394z"/>
</svg>
