<?xml version="1.0" encoding="utf-8"?>
<!-- Generator: Adobe Illustrator 24.1.1, SVG Export Plug-In . SVG Version: 6.00 Build 0)  -->
<svg version="1.1" id="Layer_1" xmlns="http://www.w3.org/2000/svg" xmlns:xlink="http://www.w3.org/1999/xlink" x="0px" y="0px"
	 viewBox="0 0 512 512" style="enable-background:new 0 0 512 512;" xml:space="preserve">
<style type="text/css">
	.st0{fill:#474A56;}
</style>
<path class="st0" d="M256.6,6.9c-137.9,0-250,112.1-250,250c0,137.9,112.1,250,250,250s250-112.2,250-250
	C506.6,119,394.4,6.9,256.6,6.9z M263.5,81.1c30.5,0,55.2,24.8,55.2,55.3s-24.8,55.3-55.2,55.3c-30.5,0-55.3-24.8-55.3-55.3
	S233,81.1,263.5,81.1z M339.1,411.9c-4.4,4.6-9,5.6-12.2,5.6H200c-3.2,0-7.9-1-12.2-5.6c-3.4-3.6-5.1-8.3-5.1-14
	c0-5.8,1.7-10.6,4.9-14.3c4.4-5,9.1-6,12.3-6h14.4V271.8H200c-3.2,0-7.9-1-12.2-5.6c-3.4-3.6-5.1-8.3-5.1-14
	c0-5.8,1.7-10.6,4.9-14.3c4.4-5,9.1-6,12.3-6h106.3c3.4,0,6.2,2.8,6.2,6.2v139.6h14.4c3.2,0,8,1,12.3,6c3.3,3.7,5,8.6,5,14.3
	C344.2,403.6,342.5,408.3,339.1,411.9z"/>
</svg>
