<?xml version="1.0" encoding="utf-8"?>
<!-- Generator: Adobe Illustrator 24.1.1, SVG Export Plug-In . SVG Version: 6.00 Build 0)  -->
<svg version="1.1" id="Layer_1" xmlns="http://www.w3.org/2000/svg" xmlns:xlink="http://www.w3.org/1999/xlink" x="0px" y="0px"
	 viewBox="0 0 512 512" style="enable-background:new 0 0 512 512;" xml:space="preserve">
<style type="text/css">
	.st0{fill:#474A56;}
</style>
<g>
	<path class="st0" d="M197.8,187.2H80.4c-3.9,0-7,3.1-7,7c0,3.8,3.1,6.9,7,6.9h117.4c3.8,0,6.9-3.1,6.9-6.9
		C204.7,190.3,201.6,187.2,197.8,187.2z"/>
	<path class="st0" d="M197.8,244.4H80.4c-3.9,0-7,3.1-7,7c0,3.8,3.1,6.9,7,6.9h117.4c3.8,0,6.9-3.1,6.9-6.9
		C204.7,247.5,201.6,244.4,197.8,244.4z"/>
	<path class="st0" d="M197.8,301.7H80.4c-3.9,0-7,3.1-7,7c0,3.8,3.1,6.9,7,6.9h117.4c3.8,0,6.9-3.1,6.9-6.9
		C204.7,304.8,201.6,301.7,197.8,301.7z"/>
	<path class="st0" d="M308.1,194.2c0,3.8,3.1,6.9,6.9,6.9h117.4c3.9,0,7-3.1,7-6.9c0-3.9-3.1-7-7-7H315
		C311.2,187.2,308.1,190.3,308.1,194.2z"/>
	<path class="st0" d="M432.4,244.4H315c-3.8,0-6.9,3.1-6.9,7c0,3.8,3.1,6.9,6.9,6.9h117.4c3.9,0,7-3.1,7-6.9
		C439.4,247.5,436.3,244.4,432.4,244.4z"/>
	<path class="st0" d="M432.4,301.7H315c-3.8,0-6.9,3.1-6.9,7c0,3.8,3.1,6.9,6.9,6.9h117.4c3.9,0,7-3.1,7-6.9
		C439.4,304.8,436.3,301.7,432.4,301.7z"/>
	<path class="st0" d="M372.9,69.5c-43.1,0-91.2,6.6-116.3,23.5c-25.1-16.9-73.2-23.5-116.3-23.5C78.6,69.5,6.6,83,6.6,121v303.7
		c0,5.2,2.3,10,6.2,13.3s9.1,4.7,14.2,3.8c34.2-5.9,73.4-9,113.3-9s79.1,3.1,113.3,9c0.5,0.1,0.9,0.1,1.4,0.1c0.4,0,0.7,0.1,1.1,0.1
		c0.2,0,0.3,0.1,0.5,0.1c0.9,0,1.9-0.1,2.8-0.3c0.1,0,0.1,0,0.2,0c34.2-5.9,73.4-9,113.3-9s79.1,3.1,113.3,9c1,0.2,2,0.3,3,0.3
		c4.1,0,8-1.4,11.2-4.1c3.9-3.3,6.2-8.1,6.2-13.3V121C506.6,83,434.6,69.5,372.9,69.5z M41.4,404.4V123.2c7-6.9,41.8-18.9,98.9-18.9
		c57.2,0,91.9,12,98.9,18.9v281.2c-30.9-4.2-64.7-6.5-98.9-6.5S72.3,400.2,41.4,404.4z M471.8,404.4c-61.8-8.4-136-8.4-197.8,0
		V123.2c7-6.9,41.8-18.9,98.9-18.9s91.9,12,98.9,18.9L471.8,404.4L471.8,404.4z"/>
</g>
</svg>
