<?xml version="1.0" encoding="utf-8"?>
<!-- Generator: Adobe Illustrator 24.1.1, SVG Export Plug-In . SVG Version: 6.00 Build 0)  -->
<svg version="1.1" id="Layer_1" xmlns="http://www.w3.org/2000/svg" xmlns:xlink="http://www.w3.org/1999/xlink" x="0px" y="0px"
	 viewBox="0 0 512 512" style="enable-background:new 0 0 512 512;" xml:space="preserve">
<style type="text/css">
	.st0{fill:#474A56;}
</style>
<g>
	<path class="st0" d="M505.9,165.3c0-13.5-11.8-25.3-25.3-25.4l-283.9-0.1c-14,0-25.3,11.4-25.3,25.3l0,181.4
		c0,6.8,2.7,13.1,7.4,17.9c4.8,4.8,11.2,7.4,17.9,7.4l283.9,0.1c14,0,25.3-11.4,25.3-25.3L505.9,165.3z M199.1,344.3l0-176.7
		l279.1,0.1l0,176.7L199.1,344.3z"/>
	<path class="st0" d="M430,196.6l-92.5,71.8l-90.3-72c-2.7-2.2-6.1-3.2-9.6-2.8c-3.4,0.4-6.5,2.1-8.7,4.8c-4.1,5.2-3.7,12.6,1,17.3
		l99.4,79.4c2.3,1.8,5.2,2.8,8.1,2.8c2.9,0,5.8-1,8-2.8l100.6-78c2.7-2.1,4.5-5.2,4.9-8.6c0.4-3.5-0.5-6.9-2.6-9.6
		C443.8,193.2,435.6,192.3,430,196.6z M233.6,212.1l-0.1,0.1L233.6,212.1L233.6,212.1z"/>
	<path class="st0" d="M145.1,160.3c0-5.5-4.5-10-10-10l-119.1,0c-5.5,0-10,4.5-10,10c0,2.8,1.1,5.3,2.9,7.1c1.8,1.8,4.3,2.9,7.1,2.9
		l119.1,0C140.6,170.2,145.1,165.8,145.1,160.3z"/>
	<path class="st0" d="M145.1,220.2c0-5.5-4.5-10-10-10l-67.8,0c-5.5,0-10,4.5-10,10c0,2.8,1.1,5.3,2.9,7.1c1.8,1.8,4.3,2.9,7.1,2.9
		l67.8,0C140.6,230.2,145.1,225.7,145.1,220.2z"/>
	<path class="st0" d="M135.1,270.2h-31c-5.5,0-10,4.5-10,10c0,2.8,1.1,5.3,2.9,7.1c1.8,1.8,4.3,2.9,7.1,2.9h31c5.5,0,10-4.5,10-10
		C145.1,274.6,140.6,270.2,135.1,270.2z"/>
</g>
</svg>
