<?xml version="1.0" encoding="utf-8"?>
<!-- Generator: Adobe Illustrator 24.1.1, SVG Export Plug-In . SVG Version: 6.00 Build 0)  -->
<svg version="1.1" id="Layer_1" xmlns="http://www.w3.org/2000/svg" xmlns:xlink="http://www.w3.org/1999/xlink" x="0px" y="0px"
	 viewBox="0 0 512 512" style="enable-background:new 0 0 512 512;" xml:space="preserve">
<style type="text/css">
	.st0{fill:#474A56;}
</style>
<path class="st0" d="M494.7,408.1c-80.5-31.1-169.9-69.8-177.4-93.8V289c16.7-17.1,29.9-40.9,37.7-68.8
	c10.4-7.3,17.2-19.5,17.2-33.5c0-9.9-3.6-18.8-9.3-25.9v-56.5C362.8,46,330.3,6,256,6c-72.4,0-106.8,40-106.8,98.3v56.6
	c-5.7,7-9.3,16-9.3,25.9c0,13.9,6.8,26.2,17.2,33.5c7.8,27.9,21,51.7,37.7,68.8v25.2c-7.5,24-96.9,62.7-177.4,93.8
	c-6.9,2.7-11.4,9.3-11.4,16.8V488c0,9.9,7.9,18,17.7,18h464.7c9.8,0,17.7-8.1,17.7-18v-63.1C506.1,417.4,501.5,410.7,494.7,408.1z"
	/>
</svg>
