<?xml version="1.0" encoding="utf-8"?>
<!-- Generator: Adobe Illustrator 24.1.1, SVG Export Plug-In . SVG Version: 6.00 Build 0)  -->
<svg version="1.1" id="Layer_1" xmlns="http://www.w3.org/2000/svg" xmlns:xlink="http://www.w3.org/1999/xlink" x="0px" y="0px"
	 viewBox="0 0 512 512" style="enable-background:new 0 0 512 512;" xml:space="preserve">
<style type="text/css">
	.st0{fill:#474A56;}
</style>
<g>
	<path class="st0" d="M484.1,156.6c-0.6-7.7-7.1-13.4-14.9-12.9l-25.5,1.9V98c0-7.7-6.3-13.9-13.9-13.9h-34.5l2.8-33.3
		c0.6-7.7-5.1-14.4-12.7-15L99.8,11.9c-3.7-0.3-7.3,0.9-10.2,3.2c-2.8,2.4-4.6,5.8-4.9,9.5l-5,59.5H19.9C12.2,84.1,6,90.4,6,98
		v316.2c0,7.7,6.2,13.9,13.9,13.9h50.4h14.2l0.1,1.2l4.2,57.9c0.3,3.7,2,7.1,4.8,9.5c2.5,2.2,5.8,3.4,9.1,3.4c0.3,0,0.7,0,1,0
		l389.3-28.3c3.7-0.3,7.1-2,9.5-4.8c2.4-2.8,3.6-6.4,3.4-10.1L484.1,156.6z M111.4,40.8l257.7,21.6l-1.8,21.7H107.8L111.4,40.8z
		 M33.9,400.3V111.9h382v288.3L33.9,400.3L33.9,400.3z M115.7,471.4l-2.9-39.7l-0.3-3.5h317.3c7.7,0,13.9-6.2,13.9-13.9V173.5
		l13.7-1L477.2,445L115.7,471.4z"/>
	<path class="st0" d="M217.8,237.4c-1.5,0-2.4,0-59.4,25.1l7.6-62.8c0.3-2.4-0.9-4.6-2.9-5.8c-0.7-0.4-1.5-0.7-2.3-0.8
		c-3.1-0.4-6.3-0.6-9.5-0.6c-8.5,0-16.7,1.5-24.4,4c-11.4,3.8-21.7,10.2-30,18.5c-0.1,0.1-0.2,0.2-0.2,0.3
		c-4.9,4.9-9.1,10.3-12.5,16.4c-4.9,8.7-8.3,18.4-9.6,28.8c-2.4,19.9,3,38.8,13.8,54c0.7,1,1.3,2,2,2.9c4.3,5.5,9.4,10.4,15,14.6
		c10.4,7.7,22.9,13,36.6,14.7c3.1,0.4,6.3,0.6,9.4,0.6c39,0,72-29.3,76.7-68c1.6-12.9-0.2-26.1-5-38.1
		C222.4,238.9,220.3,237.4,217.8,237.4z"/>
	<path class="st0" d="M236.4,188.6c-3.5-4.9-7.7-9.4-12.5-13.1c-7.8-6.1-17.1-10.2-27.2-12c-1-0.2-2-0.5-3.1-0.6
		c-1.1-0.1-2.1,0.3-2.8,1c-0.5,0.5-0.9,1.2-1,1.9l-1.5,12.2l-1.8,14.1l-3.9,31.7c-0.2,1.2,0.4,2.4,1.3,3.1c0.6,0.5,1.3,0.7,2,0.7
		c0.5,0,0.9-0.1,1.3-0.3l53.8-22.7c0.8-0.4,1.5-1,1.8-1.9c0.3-0.8,0.3-1.8,0-2.6C241.2,196.1,239,192.2,236.4,188.6z"/>
	<path class="st0" d="M364.2,336.9c5.8,0,10.4-4.7,10.4-10.4S370,316,364.2,316h-16.4h-61.3c-5.8,0-10.4,4.7-10.4,10.4
		s4.7,10.4,10.4,10.4h59.6H364.2z"/>
	<path class="st0" d="M286.5,276.4h64.7h13c5.8,0,10.4-4.7,10.4-10.4c0-5.8-4.7-10.4-10.4-10.4h-11.3h-66.4
		c-5.8,0-10.4,4.7-10.4,10.4C276.1,271.8,280.7,276.4,286.5,276.4z"/>
	<path class="st0" d="M286.5,216.8h69.6h8.1c5.8,0,10.4-4.7,10.4-10.4c0-5.8-4.7-10.4-10.4-10.4h-6.3h-71.4
		c-5.8,0-10.4,4.7-10.4,10.4C276.1,212.2,280.7,216.8,286.5,216.8z"/>
</g>
</svg>
