<?xml version="1.0" encoding="utf-8"?>
<!-- Generator: Adobe Illustrator 24.1.1, SVG Export Plug-In . SVG Version: 6.00 Build 0)  -->
<svg version="1.1" id="Layer_1" xmlns="http://www.w3.org/2000/svg" xmlns:xlink="http://www.w3.org/1999/xlink" x="0px" y="0px"
	 viewBox="0 0 512 512" style="enable-background:new 0 0 512 512;" xml:space="preserve">
<style type="text/css">
	.st0{fill:#474A56;}
</style>
<path class="st0" d="M499,402.3L302.8,56.6c-9.6-16.9-27.4-27.2-46.8-27.2c-19.4,0-37.2,10.4-46.8,27.2L13,402.3
	c-9.5,16.6-9.3,37.1,0.3,53.6c9.6,16.5,27.3,26.7,46.5,26.7h392.4c19.2,0,36.9-10.2,46.5-26.7C508.3,439.3,508.4,418.9,499,402.3z
	 M282.8,419.1c-6.6,5.8-14.4,8.8-23.2,8.8c-8.9,0-16.8-2.9-23.4-8.7c-6.8-5.9-10.3-14.2-10.3-24.6c0-9.1,3.3-17,9.7-23.4
	c6.4-6.4,14.4-9.7,23.6-9.7c9.2,0,17.3,3.2,23.8,9.6c6.6,6.4,9.9,14.3,9.9,23.5C292.9,404.9,289.5,413.1,282.8,419.1z M291.5,196.5
	l-8.5,97.9c-1,12.2-3,21.4-6.3,28.1c-3.6,7.4-9.9,11.3-18.2,11.3c-8.5,0-14.7-3.8-18.1-11.1c-3-6.5-5-15.8-6.3-28.6l-6.4-95.3
	c-1.2-18.8-1.8-32-1.8-40.2c0-11.9,3.2-21.3,9.6-28.1c6.4-6.9,14.9-10.3,25.3-10.3c12.8,0,21.5,4.6,26,13.8
	c4.1,8.4,6.1,20.1,6.1,35.6C292.9,178.4,292.5,187.4,291.5,196.5z"/>
</svg>
