<?xml version="1.0" encoding="utf-8"?>
<!-- Generator: Adobe Illustrator 24.1.1, SVG Export Plug-In . SVG Version: 6.00 Build 0)  -->
<svg version="1.1" id="Layer_1" xmlns="http://www.w3.org/2000/svg" xmlns:xlink="http://www.w3.org/1999/xlink" x="0px" y="0px"
	 viewBox="0 0 512 512" style="enable-background:new 0 0 512 512;" xml:space="preserve">
<style type="text/css">
	.st0{fill:#474A56;}
</style>
<path class="st0" d="M439.7,105.1h-89.1c0.5-10.4-1.1-21.7-7.4-32.3C330,50,300.6,38.3,255.9,38c-44.5-0.4-73.6,11-87,33.5
	c-6.5,10.9-8.1,22.8-7.5,33.6H72.3C35.7,105.1,6,134.8,6,171.3v237.5c0,36.5,29.7,66.3,66.3,66.3h367.5c36.5,0,66.3-29.7,66.3-66.3
	V171.3C506,134.8,476.3,105.1,439.7,105.1z M192.6,85.5c8-13.3,29.6-20.1,63-19.9c33.7,0.2,55.7,7.5,63.7,21.1
	c3.4,5.7,4.1,12.2,3.7,18.4h-134C188.4,98.3,189.2,91.3,192.6,85.5z M342.3,316.1h-63.9v63.7c0,12.5-10,22.6-22.5,22.6
	c-12.4,0-22.5-10.1-22.5-22.6v-63.7h-63.7c-12.5,0-22.5-10.1-22.5-22.5c0-12.4,10-22.5,22.5-22.5h63.7v-63.8
	c0-12.5,10.1-22.5,22.5-22.5c12.5,0,22.5,10,22.5,22.5v63.8h63.9c12.4,0,22.5,10.1,22.5,22.5C364.8,306,354.7,316.1,342.3,316.1z"/>
</svg>
