<?xml version="1.0" encoding="utf-8"?>
<!-- Generator: Adobe Illustrator 24.1.1, SVG Export Plug-In . SVG Version: 6.00 Build 0)  -->
<svg version="1.1" id="Layer_1" xmlns="http://www.w3.org/2000/svg" xmlns:xlink="http://www.w3.org/1999/xlink" x="0px" y="0px"
	 viewBox="0 0 512 512" style="enable-background:new 0 0 512 512;" xml:space="preserve">
<style type="text/css">
	.st0{fill:#474A56;}
</style>
<path class="st0" d="M256,6.3C118.1,6.3,6,118.5,6,256.4c0,137.8,112.1,250,250,250c137.8,0,250-112.1,250-250S393.8,6.3,256,6.3z
	 M286.9,468.6c-6.7,1-13.4,1.6-20.2,2v-95.3h78.9C331.9,419.3,311.1,453,286.9,468.6z M166.9,375.2h78.4v95.3
	c-6.6-0.3-13.1-1-19.5-1.9C201.5,453.2,180.6,419.4,166.9,375.2z M41.8,267h86.9c0.6,30.9,4.2,60.2,10.2,86.9H65.1
	C51.6,327.6,43.3,298.2,41.8,267z M225.8,44.1c6.4-0.9,12.9-1.6,19.5-1.9V139h-78.9C180.1,94.1,201.2,59.7,225.8,44.1z M346.1,139
	h-79.4V42.2c6.8,0.3,13.6,1,20.2,2C311.4,59.9,332.4,94.2,346.1,139z M351.8,160.3c6.2,26.2,10,55.1,10.7,85.3h-95.9v-85.3
	C266.7,160.3,351.8,160.3,351.8,160.3z M245.3,160.3v85.3H150c0.7-30.3,4.5-59.2,10.7-85.3C160.7,160.3,245.3,160.3,245.3,160.3z
	 M128.7,245.7H41.8c1.5-30.6,9.5-59.4,22.5-85.3h74.2C132.7,186.6,129.3,215.3,128.7,245.7z M150,267h95.3v86.9h-84.2
	C154.7,327.3,150.7,297.9,150,267z M266.7,353.9V267h95.9c-0.7,30.9-4.7,60.3-11.1,86.9H266.7z M383.9,267h86.3
	c-1.5,31.1-9.8,60.6-23.3,86.9h-73.2C379.6,327.2,383.2,298,383.9,267z M383.9,245.7c-0.6-30.3-4.1-59.1-9.8-85.3h73.6
	c13,25.9,21,54.8,22.5,85.3C470.2,245.7,383.9,245.7,383.9,245.7z M435.3,139h-66.6c-9.6-34-23.3-62.9-40-84.4
	C372.7,70.6,410.1,100.5,435.3,139z M184,54.4c-16.7,21.5-30.5,50.5-40.2,84.6H76.6C102,100.3,139.6,70.2,184,54.4z M77.6,375.2
	h66.6c9.6,33.5,23.2,61.9,39.7,83.1C140.2,442.7,103,413.2,77.6,375.2z M328.7,458.1c16.4-21.1,29.9-49.5,39.5-82.8h66.1
	C409.1,413,372.2,442.4,328.7,458.1z"/>
</svg>
