<?xml version="1.0" encoding="utf-8"?>
<!-- Generator: Adobe Illustrator 24.1.1, SVG Export Plug-In . SVG Version: 6.00 Build 0)  -->
<svg version="1.1" id="Layer_1" xmlns="http://www.w3.org/2000/svg" xmlns:xlink="http://www.w3.org/1999/xlink" x="0px" y="0px"
	 viewBox="0 0 512 512" style="enable-background:new 0 0 512 512;" xml:space="preserve">
<style type="text/css">
	.st0{fill:#474A56;}
</style>
<g>
	<path class="st0" d="M478.3,275c-15.3,0-27.7,12.4-27.7,27.7v131.1H61.4V302.7c0-15.3-12.4-27.7-27.7-27.7
		C18.4,275,6,287.4,6,302.7v158.8c0,15.3,12.4,27.7,27.7,27.7h444.6c15.3,0,27.7-12.4,27.7-27.7V302.7
		C506,287.4,493.6,275,478.3,275z"/>
	<path class="st0" d="M245,367c2.6,3.5,6.7,5.6,11,5.6c4.4,0,8.4-2.1,11-5.6l90.8-125.1c3-4.1,3.4-9.6,1.1-14.1
		c-2.3-4.6-7-7.4-12.1-7.4h-59.1V54.6c0-17.5-14.2-31.7-31.7-31.7S224.3,37,224.3,54.6v165.8h-59.1c-5.1,0-9.8,2.9-12.1,7.4
		c-2.3,4.5-1.9,10,1.1,14.1L245,367z"/>
</g>
</svg>
