<?xml version="1.0" encoding="utf-8"?>
<!-- Generator: Adobe Illustrator 24.1.1, SVG Export Plug-In . SVG Version: 6.00 Build 0)  -->
<svg version="1.1" id="Layer_1" xmlns="http://www.w3.org/2000/svg" xmlns:xlink="http://www.w3.org/1999/xlink" x="0px" y="0px"
	 viewBox="0 0 512 512" style="enable-background:new 0 0 512 512;" xml:space="preserve">
<style type="text/css">
	.st0{fill:#474A56;}
</style>
<path class="st0" d="M501.6,86L426,10.4c-5.8-5.8-15.3-5.8-21.1,0L394.3,21l-24,24l-1.4,1.4L61.6,353.7c-1.4,1.4-2.5,3.1-3.3,5
	L7.1,485.5c-2.3,5.6-1,11.9,3.3,16.1c2.9,2.9,6.7,4.4,10.5,4.4c1.9,0,3.8-0.4,5.6-1.1l80.6-32.5l46.3-18.7c1.8-0.8,3.5-1.9,4.9-3.3
	l342-342l1.3-1.3c2.8-2.8,4.4-6.6,4.4-10.6C506,92.6,504.4,88.8,501.6,86z M139.4,427.2l-49.5,20l-25-25l20-49.5L415.4,42.1
	l25.1,25.1L126,381.7c-2.9,2.9-2.9,7.6,0,10.5c1.5,1.5,3.4,2.2,5.3,2.2c1.9,0,3.8-0.7,5.3-2.2L451.1,77.7l18.8,18.8L139.4,427.2z"/>
</svg>
