<?xml version="1.0" encoding="utf-8"?>
<!-- Generator: Adobe Illustrator 24.1.1, SVG Export Plug-In . SVG Version: 6.00 Build 0)  -->
<svg version="1.1" id="Layer_1" xmlns="http://www.w3.org/2000/svg" xmlns:xlink="http://www.w3.org/1999/xlink" x="0px" y="0px"
	 viewBox="0 0 512 512" enable-background="new 0 0 512 512" xml:space="preserve">
<g>
	<path fill="#474A56" d="M236.5,317.2h-133c-3.9,0-7,3.1-7,7c0,3.8,3.1,7,7,7h133c3.9,0,7-3.1,7-7
		C243.4,320.3,240.3,317.2,236.5,317.2z"/>
	<path fill="#474A56" d="M236.5,254.5h-133c-3.9,0-7,3.1-7,7c0,3.8,3.1,7,7,7h133c3.9,0,7-3.1,7-7
		C243.4,257.6,240.3,254.5,236.5,254.5z"/>
	<path fill="#474A56" d="M236.5,191.8h-133c-3.9,0-7,3.1-7,7c0,3.8,3.1,7,7,7h133c3.9,0,7-3.1,7-7
		C243.4,194.9,240.3,191.8,236.5,191.8z"/>
	<path fill="#474A56" d="M492.4,397.1c-25.5-24.8-56.7-42.3-90.2-50.6c-0.9-0.4-1.8-0.7-2.8-0.7h-3c-1,0-1.9,0.2-2.8,0.7
		c-2,1.1-4.4,2.1-6.7,3l0,0c-1.8,0.7-3.7,1.3-5.6,1.9c-0.9,0.2-1.8,0.5-2.7,0.8c-1.7,0.5-3.4,0.8-5.1,1.1c-1.5,0.3-3.1,0.6-4.6,0.8
		c-1.3,0.2-2.6,0.4-4,0.5c-3.1,0.3-6.2,0.5-9.3,0.5c-1.2,0-2.3-0.1-3.5-0.2l0,0c-12.8-0.5-25.3-3.4-34.6-8.3
		c-0.8-0.4-1.8-0.7-2.8-0.7h-2.2c-0.4,0-0.9,0-1.4,0.1c-34.4,8.2-66.3,25.9-92.4,51.2c-1.1,1.1-1.8,2.6-1.8,4.2v20.8
		c0,3.2,2.6,5.8,5.8,5.8h129.2H387h101.4c3.2,0,5.8-2.6,5.8-5.8v-20.8C494.2,399.7,493.6,398.2,492.4,397.1z"/>
	<path fill="#474A56" d="M371.4,157.7c-2-0.5-4-1-6.1-1.3c-0.6-0.1-1.2-0.2-1.9-0.3c-2.5-0.3-5.1-0.6-7.7-0.6
		c-34.5,0-62.5,29.7-62.5,66.3c0,7.5,1.2,14.7,3.4,21.4c-3.7,1.8-6.3,5.7-6.3,10.4c0,6.3,4.8,11.3,10.7,11.3c0.1,0,0.1,0,0.2,0
		c2.2,29.9,25.8,59.9,54.6,59.9c1.6,0,3.3-0.1,4.9-0.3c0.6-0.1,1.1-0.2,1.7-0.3c1-0.2,2-0.3,3-0.6c0.7-0.2,1.4-0.4,2.1-0.6
		c0.8-0.2,1.5-0.5,2.3-0.7c0.8-0.3,1.6-0.6,2.4-0.9c0.5-0.2,0.9-0.4,1.4-0.6c20.2-9.1,35-32.4,36.8-55.9c0.1,0,0.1,0,0.2,0
		c5.9,0,10.7-5.1,10.7-11.3c0-4.6-2.6-8.6-6.3-10.4c2.1-6.7,3.3-13.9,3.3-21.4c0-30.3-19.2-55.9-45.5-63.7
		C372.2,158,371.8,157.9,371.4,157.7z"/>
	<path fill="#474A56" d="M352.2,471.2H52.7V40.8H284v56.8c0,5.8,4.7,10.5,10.4,10.5h57.7v23.2c1.2-0.1,2.3-0.2,3.5-0.2
		c11.1,0,21.6,2.2,31.4,6.2V89.9c0-4.7-1.9-9.1-5.2-12.4L314.4,11c-3.2-3.2-7.6-5-12.2-5H35.2c-9.6,0-17.4,7.8-17.4,17.4v465.2
		c0,9.6,7.8,17.4,17.4,17.4h334.4c9.6,0,17.4-7.8,17.4-17.4v-36.3h-34.9V471.2z"/>
</g>
</svg>
