<?xml version="1.0" encoding="utf-8"?>
<!-- Generator: Adobe Illustrator 24.1.1, SVG Export Plug-In . SVG Version: 6.00 Build 0)  -->
<svg version="1.1" id="Layer_1" xmlns="http://www.w3.org/2000/svg" xmlns:xlink="http://www.w3.org/1999/xlink" x="0px" y="0px"
	 viewBox="0 0 512 512" style="enable-background:new 0 0 512 512;" xml:space="preserve">
<style type="text/css">
	.st0{fill:#474A56;}
</style>
<g>
	<path class="st0" d="M282,108.1c-10.9-2.3-21.6,4.7-23.9,15.6c-2.3,10.9,4.8,21.6,15.7,23.9c52.7,11,86.7,62.9,75.6,115.6
		c-2.3,10.9,4.7,21.6,15.6,23.9c10.9,2.3,21.6-4.7,23.9-15.6C404.4,197,356.5,123.7,282,108.1z"/>
	<path class="st0" d="M303.1,7.1c-10.9-2.3-21.6,4.7-23.8,15.6c-2.3,10.9,4.7,21.6,15.6,23.9C403.3,69.3,473,176,450.4,284.4
		c-2.3,10.9,4.7,21.6,15.6,23.9c10.9,2.3,21.6-4.7,23.9-15.6C517.1,162.4,433.3,34.4,303.1,7.1z"/>
	<path class="st0" d="M300.4,326.2c-3.1-4.7-9.3-6.1-14.1-3.1l-3,1.9c-8.2,5.3-31.7,20.5-33.9,21.9c-0.6,0.4-1.2,0.6-1.8,0.8
		c-16.1,4.4-58.8-37.5-83.9-90.9c-15.1-32.1-15.1-51.6-9-55.8l37.1-24c2.3-1.5,3.9-3.8,4.5-6.5c0.6-2.7,0.1-5.5-1.4-7.8L114.5,38.9
		c-1.5-2.3-3.8-3.9-6.5-4.5c-2.7-0.6-5.5,0-7.8,1.4l-5.8,3.8C84,46.4,63.1,60,62.5,60.3l-1.3,0.9c-46.6,31.6-84.5,92,37.3,279.9
		c81.6,125.8,150,179.1,209.2,162.8h0c12.9-3.5,22.9-9.7,30.2-14.2l2.3-1.4c1.6-0.9,37.3-24,38.3-24.7c4.5-3.2,5.7-9.4,2.7-14.1
		L300.4,326.2z"/>
</g>
</svg>
