<?xml version="1.0" encoding="utf-8"?>
<!-- Generator: Adobe Illustrator 24.1.1, SVG Export Plug-In . SVG Version: 6.00 Build 0)  -->
<svg version="1.1" id="Layer_1" xmlns="http://www.w3.org/2000/svg" xmlns:xlink="http://www.w3.org/1999/xlink" x="0px" y="0px"
	 viewBox="0 0 512 512" style="enable-background:new 0 0 512 512;" xml:space="preserve">
<style type="text/css">
	.st0{fill:#474A56;}
</style>
<g>
	<g>
		<path class="st0" d="M318.9,471.2h-96.8V299.7l-35.4,24.3v147.2H93.8c-9.8,0-17.7,7.9-17.7,17.7c0,9.8,7.9,17.7,17.7,17.7h225.1
			c9.8,0,17.7-7.9,17.7-17.7C336.6,479.1,328.6,471.2,318.9,471.2z"/>
	</g>
	<g>
		<path class="st0" d="M487.1,86.8l-40.9-59.7c-14.8-21.5-44.1-27-65.7-12.2l-131.6,90.2c-17.4,12-24.3,33.5-18.5,52.7
			c1.4,4.5,3.4,8.8,6.2,12.9L22.3,317.5c-6,4.1-7.6,12.3-3.4,18.3L45,374c2,2.9,5,4.9,8.5,5.5c0.8,0.2,1.6,0.2,2.4,0.2
			c0.4,0,0.7,0,1.1-0.1c2.3-0.2,4.5-1,6.4-2.3l214.3-146.9c2.8,4.1,6.1,7.5,9.8,10.4c15.8,12.4,38.4,13.7,55.8,1.7l131.6-90.2
			C496.4,137.7,501.9,108.3,487.1,86.8z"/>
	</g>
</g>
</svg>
