<?xml version="1.0" encoding="utf-8"?>
<!-- Generator: Adobe Illustrator 24.1.1, SVG Export Plug-In . SVG Version: 6.00 Build 0)  -->
<svg version="1.1" id="Layer_1" xmlns="http://www.w3.org/2000/svg" xmlns:xlink="http://www.w3.org/1999/xlink" x="0px" y="0px"
	 viewBox="0 0 512 512" style="enable-background:new 0 0 512 512;" xml:space="preserve">
<style type="text/css">
	.st0{fill:#474A56;}
</style>
<path class="st0" d="M497.8,92c-11-11-28.8-11-39.8,0l-5.4,5.4l-43.8-30.7l11.9-12c11-11,11-28.8,0-39.8C409.8,4,392,4,381,15
	l-25.9,25.9c-32.9,32.9-38.3,67.4-39.3,93.8c-0.1,3.6-0.2,7.1-0.2,10.6c0,9.7,0.5,19.3,1,28.5c0.5,9,0.8,17.1,0.9,25.3
	c0,3.7,0,7.4-0.1,11c-0.4,8.8-1.4,18.3-4.1,28.2l-49.9-35c12.5-5.1,24.5-7,35.6-7.7c-0.1-6.5-0.5-13.3-0.8-20.7
	c-0.5-8.8-0.9-17.4-1-26.2c-36.3-0.7-74.6,4.3-109.7,39.4c-36.4,36.4-40.4,76-39.4,113.4c0.1,3.6,0.2,7.2,0.4,10.7
	c0.1,3,0.3,6,0.5,8.9c0.8,15.6,1.6,31.7-0.2,47.1c-0.5,4.2-1.1,7.9-1.8,11.5c-1.8,8.2-4.4,15.8-7.9,23l-36.1-25.3
	c8.6-5.1,17.6-8.7,27.4-11.1c1.6-13.7,0.9-28.6,0.1-44.3l-0.3-5.5c-25.9,1.4-58.7,7.8-90,39.1l-25.9,25.9c-11,11-11,28.8,0,39.8
	c11,11,28.8,11,39.8,0l5.9-5.9l43.8,30.7l-12.5,12.4c-11,11-11,28.8,0,39.8c11,11,28.8,11,39.8,0l25.9-25.9
	c32.9-32.9,38.3-67.4,39.3-93.8c0.2-3.6,0.2-7.1,0.2-10.7c0-9.5-0.5-18.9-1-28c-0.5-9.2-0.9-17.5-0.9-25.8c0-3.7,0-7.4,0.2-11
	c0.4-9.3,1.5-19.4,4.6-29.9l51.3,35.9c-13.2,5.7-25.9,7.7-37.5,8.5c0.1,6.7,0.5,13.7,0.8,20.7c0.4,8.6,0.9,17.2,1,26.2
	c36.3,0.7,74.6-4.3,109.7-39.5c36.3-36.3,40.4-76,39.3-113.4c-0.1-3.6-0.3-7.2-0.4-10.7l-0.5-8.9c-0.8-15.6-1.6-31.7,0.2-47
	c0.5-4.2,1.1-7.9,1.8-11.5c1.8-8.4,4.5-16.2,8.2-23.7l36.4,25.5c-8.8,5.3-18,9-28.1,11.5c-1.6,13.7-0.9,28.6-0.1,44.3l0.3,5.5
	c25.9-1.4,58.7-7.8,90-39.1l25.9-25.9C508.8,120.8,508.8,102.9,497.8,92z M117.2,432.8l-0.9,0.9l-43.8-30.7l7.5-7.5
	c2.6-2.6,5.3-5,8-7.3l42.1,29.4C126.3,422.9,122.1,427.9,117.2,432.8z M267.6,300l-61.7-43.2c3-5.8,6.7-11.7,11.4-17.7l67,46.9
	C278.7,291.6,273.1,296.2,267.6,300z M295.9,272.9l-66.8-46.8c5.7-5.5,11.3-10.1,16.9-13.8l60.9,42.7
	C304.2,260.9,300.5,266.9,295.9,272.9z M432.1,117.9c-2.4,2.4-4.9,4.7-7.4,6.9l-42.2-29.6c3.6-4.9,7.7-9.8,12.4-14.5l1.4-1.4
	l43.8,30.7L432.1,117.9z"/>
</svg>
