<?xml version="1.0" encoding="utf-8"?>
<!-- Generator: Adobe Illustrator 24.1.1, SVG Export Plug-In . SVG Version: 6.00 Build 0)  -->
<svg version="1.1" id="Layer_1" xmlns="http://www.w3.org/2000/svg" xmlns:xlink="http://www.w3.org/1999/xlink" x="0px" y="0px"
	 viewBox="0 0 512 512" style="enable-background:new 0 0 512 512;" xml:space="preserve">
<style type="text/css">
	.st0{fill:#474A56;}
</style>
<path class="st0" d="M409.9,159.8C409.9,74.9,341,6,256,6c-85,0-153.9,68.9-153.9,153.8c0,28.1,7.7,54.3,20.7,76.9h-0.1L255.9,506
	l133.3-269.2h-0.2C402.2,214.1,409.9,187.9,409.9,159.8z M256,205.5c-35.7,0-64.6-28.9-64.6-64.6c0-35.7,28.9-64.7,64.6-64.7
	c35.7,0,64.7,29,64.7,64.7C320.7,176.6,291.7,205.5,256,205.5z"/>
</svg>
