<?xml version="1.0" encoding="utf-8"?>
<!-- Generator: Adobe Illustrator 24.1.1, SVG Export Plug-In . SVG Version: 6.00 Build 0)  -->
<svg version="1.1" id="Layer_1" xmlns="http://www.w3.org/2000/svg" xmlns:xlink="http://www.w3.org/1999/xlink" x="0px" y="0px"
	 viewBox="0 0 512 512" style="enable-background:new 0 0 512 512;" xml:space="preserve">
<style type="text/css">
	.st0{fill:#474A56;}
</style>
<g>
	<path class="st0" d="M494.5,251.5h-90.1v-21c0-54.2,17.5-79.4,55-79.4c6.4,0,11.6-5.2,11.6-11.6V77.2c0-6.4-5.2-11.6-11.6-11.6
		c-51.1,0-92.2,16.4-122.4,48.6c-29.9,32-45.1,87.4-45.1,164.7v157.4c0,6.4,5.2,11.6,11.7,11.6h190.9c6.4,0,11.7-5.2,11.7-11.6v-173
		C506.2,256.7,500.9,251.5,494.5,251.5z"/>
	<path class="st0" d="M208.8,251.5h-90.1v-21c0-54.2,17.5-79.4,55-79.4c6.4,0,11.6-5.2,11.6-11.6V77.2c0-6.4-5.2-11.6-11.6-11.6
		c-51.5,0-92.8,16.4-122.7,48.6c-29.7,32-44.7,87.5-44.7,164.7v157.4c0,6.4,5.2,11.6,11.7,11.6h190.9c6.4,0,11.6-5.2,11.6-11.6v-173
		C220.4,256.7,215.2,251.5,208.8,251.5z"/>
</g>
</svg>
