<?xml version="1.0" encoding="utf-8"?>
<!-- Generator: Adobe Illustrator 24.1.1, SVG Export Plug-In . SVG Version: 6.00 Build 0)  -->
<svg version="1.1" id="Layer_1" xmlns="http://www.w3.org/2000/svg" xmlns:xlink="http://www.w3.org/1999/xlink" x="0px" y="0px"
	 viewBox="0 0 512 512" style="enable-background:new 0 0 512 512;" xml:space="preserve">
<style type="text/css">
	.st0{fill:#474A56;}
</style>
<g>
	<path class="st0" d="M203.5,224.5c0.8-1.7,1.7-3.4,2.8-5l11.5-16.8l25.6-37.4L134.7,6.7h-88l150.8,219.9
		C199.4,225.9,201.4,225.2,203.5,224.5z"/>
	<path class="st0" d="M232.9,217.7c7.3-1,14.7-1.5,22.2-1.5c8.3,0,16.5,0.6,24.6,1.8c12.1,1.8,23.7,5,34.7,9.2L465.6,6.7h-88.1
		L256.1,183.8l-21.1,30.7L232.9,217.7z"/>
	<path class="st0" d="M317.7,259.3c-6.3-3.3-12.9-6-19.7-8.3c-3.4-1.1-6.9-2.1-10.5-3c-10.4-2.5-21.3-4-32.5-4
		c-10.6,0-20.8,1.3-30.7,3.6c-3.6,0.8-7.1,1.7-10.6,2.8c-3.5,1.1-6.9,2.3-10.2,3.6c-39.9,16.3-70.1,50.9-79.6,93
		c-2,9.1-3.2,18.5-3.2,28.2c0,3.2,0.3,6.2,0.5,9.3c4.9,68.1,62.9,122,133.8,122c70.8,0,128.8-53.9,133.7-122
		c0.2-3.1,0.5-6.2,0.5-9.3c0-9.7-1.1-19.1-3.2-28.2C377.6,309.1,352,277.1,317.7,259.3z M278.3,347.1v10.5v17.3v10.5V433
		c0,2.8-1.3,5.4-3.8,7.7c-2.5,2.3-5.8,3.4-9.9,3.4c-4.6,0-8.1-1.2-10.8-3.4c-2.6-2.3-3.9-4.9-3.9-7.7v-47.8v-10.5v-17.3v-10.5v-10.7
		h-23.9c-4.2,0-7.6-1.1-10.1-3.4c-2.5-2.3-3.8-5.2-3.8-8.9c0-3.9,1.3-7.1,3.8-9.4c2.5-2.3,5.9-3.4,10.1-3.4h38.6
		c4.1,0,7.3,1.1,9.9,3.4c2.5,2.3,3.8,4.9,3.8,7.7L278.3,347.1L278.3,347.1z"/>
</g>
</svg>
