<?xml version="1.0" encoding="utf-8"?>
<!-- Generator: Adobe Illustrator 24.1.1, SVG Export Plug-In . SVG Version: 6.00 Build 0)  -->
<svg version="1.1" id="Layer_1" xmlns="http://www.w3.org/2000/svg" xmlns:xlink="http://www.w3.org/1999/xlink" x="0px" y="0px"
	 viewBox="0 0 512 512" style="enable-background:new 0 0 512 512;" xml:space="preserve">
<style type="text/css">
	.st0{fill:#474A56;}
</style>
<g>
	<g>
		<path class="st0" d="M369.3,367.7c-21.6-8.2-44-18.1-64.2-28.2c-35.6-17.9-64.1-36.5-67.6-47.8v-11.1c12.4-12.5,22.2-29.9,28-50.4
			c7.7-5.3,12.8-14.3,12.8-24.5c0-7.2-2.7-13.8-6.9-18.9v-41.4c0-42.7-24.1-71.9-79.4-71.9c-53.8,0-79.4,29.2-79.4,71.9v41.4
			c-4.2,5.1-6.9,11.7-6.9,18.9c0,10.2,5.1,19.1,12.8,24.5c5.8,20.4,15.6,37.9,28,50.4v11.1c-5.6,17.6-72,53.2-131.8,76
			c-5.1,2-8.5,6.8-8.5,12.3v46.2c0,7.3,5.9,13.1,13.2,13.1h345.2c7.3,0,13.1-5.9,13.1-13.1V380C377.7,374.5,374.4,369.6,369.3,367.7
			z"/>
	</g>
	<g>
		<path class="st0" d="M499.4,382.5c-47.4-18.1-100.1-46.3-104.5-60.3v-8.8c9.8-9.9,17.6-23.7,22.2-39.9
			c6.1-4.2,10.1-11.3,10.1-19.4c0-5.8-2.1-10.9-5.5-15v-32.8c0-33.9-19.1-57.1-62.9-57.1c-4.8,0-9.2,0.4-13.4,1
			c-1.3,0.2-2.5,0.4-3.7,0.6c-3,0.6-5.8,1.2-8.4,2c-1.1,0.3-2.3,0.7-3.4,1.1c-3.4,1.2-6.5,2.6-9.4,4.3c-0.6,0.4-1.2,0.9-1.8,1.3
			c-2.2,1.4-4.2,2.9-6.1,4.6c-1,0.9-1.9,1.8-2.8,2.7c-1.3,1.4-2.6,2.9-3.7,4.5c-0.8,1.1-1.6,2.1-2.3,3.2c-1.5,2.5-2.9,5.1-3.9,7.9
			c-2.7,7.1-4.2,15.1-4.2,23.8v30.6v2.2c-3.4,4.1-5.5,9.3-5.5,15c0,8.1,4,15.2,10.1,19.4c4.6,16.2,12.4,30,22.2,39.9v0.4
			c15.7,10.1,34.4,20.3,56.2,28.6c15.5,5.9,25.9,21,25.9,37.5v46.2c0,4.6-0.9,9-2.4,13.1h93.3c5.8,0,10.4-4.7,10.4-10.4v-36.6
			C506.1,388,503.5,384.1,499.4,382.5z"/>
	</g>
</g>
</svg>
