<?xml version="1.0" encoding="utf-8"?>
<!-- Generator: Adobe Illustrator 24.1.1, SVG Export Plug-In . SVG Version: 6.00 Build 0)  -->
<svg version="1.1" id="Layer_1" xmlns="http://www.w3.org/2000/svg" xmlns:xlink="http://www.w3.org/1999/xlink" x="0px" y="0px"
	 viewBox="0 0 512 512" style="enable-background:new 0 0 512 512;" xml:space="preserve">
<style type="text/css">
	.st0{fill:#474A56;}
</style>
<g>
	<path class="st0" d="M117.8,377.2H20.8C12.6,377.2,6,383.8,6,392v93.3c0,8.2,6.6,14.8,14.8,14.8h97.1c8.1,0,14.7-6.6,14.7-14.8V392
		C132.6,383.8,126,377.2,117.8,377.2z"/>
	<path class="st0" d="M304.5,259h-97.1c-8.1,0-14.7,6.6-14.7,14.7v211.5c0,8.2,6.6,14.8,14.7,14.8h97.1c8.1,0,14.8-6.6,14.8-14.8
		V273.8C319.3,265.6,312.7,259,304.5,259z"/>
	<path class="st0" d="M491.3,54.7h-97.1c-8.1,0-14.7,6.6-14.7,14.8v415.8c0,8.2,6.6,14.8,14.7,14.8h97.1c8.1,0,14.7-6.6,14.7-14.8
		V69.5C506,61.3,499.4,54.7,491.3,54.7z"/>
	<path class="st0" d="M51.4,275.7l173.2-173.2l9,9l11.5,11.5c0.4,0.4,0.9,0.7,1.3,1c0.1,0.1,0.3,0.2,0.4,0.2
		c0.4,0.2,0.8,0.4,1.2,0.5c0.1,0,0.2,0.1,0.4,0.1c0.5,0.1,1,0.2,1.4,0.2c0.1,0,0.1,0,0.1,0c0.7,0,1.3-0.1,1.9-0.3
		c2.4-0.8,4.1-2.8,4.5-5.3l33.6-96.6c0.3-2.1-0.4-4.2-1.9-5.8c-1.5-1.5-3.6-2.2-5.8-1.9l-96.6,33.7c-1.5,0.2-2.8,1-3.8,2.1l0,0
		c-0.3,0.3-0.6,0.7-0.8,1.1c-0.3,0.4-0.5,0.9-0.7,1.3c-0.8,2.4-0.1,5,1.6,6.8l20.5,20.5L29.5,253.7c-6.1,6.1-6.1,15.9,0,22
		C35.5,281.8,45.4,281.8,51.4,275.7z"/>
</g>
</svg>
