<?xml version="1.0" encoding="utf-8"?>
<!-- Generator: Adobe Illustrator 24.1.1, SVG Export Plug-In . SVG Version: 6.00 Build 0)  -->
<svg version="1.1" id="Layer_1" xmlns="http://www.w3.org/2000/svg" xmlns:xlink="http://www.w3.org/1999/xlink" x="0px" y="0px"
	 viewBox="0 0 512 512" style="enable-background:new 0 0 512 512;" xml:space="preserve">
<style type="text/css">
	.st0{fill:#474A56;}
</style>
<g>
	<path class="st0" d="M317.4,355.9c0.3-2.1,0.6-4.2,0.8-6.3c0.1-0.9,0.1-1.9,0.2-2.9c0.1-1.6,0.2-3.2,0.2-4.8c0-2.7,0-5.4-0.2-8.2
		c0.3-7-0.2-13.7-1.6-20.2c-0.7-4-1.6-8.1-2.7-12.3c-0.4-1.7-1-3.4-1.5-5.1c-0.7-2.5-1.4-5-2.3-7.5c-0.8-2.5-1.8-5-2.6-7.5
		c-0.6-1.8-1.2-3.6-1.9-5.4c-1.4-3.9-2.9-7.8-4.4-11.8c-0.1-0.2-0.1-0.3-0.2-0.5l0,0c-0.3-0.7-0.6-1.5-0.8-2.2
		c-7.2-18.8-14.5-37.9-17.9-56.5c-1.3-7-1.9-13.9-1.9-20.7l0,0c0.1-17.2,4.8-33.7,17.9-48.9c1.1-1.3,1.3-3.2,0.5-4.8
		c-0.9-1.5-2.6-2.4-4.3-2c-52.1,8.7-72.7,60.4-80,87.5c-23.9-45.6-33.8-93.6-33.8-162.5c0-1.5-0.8-2.9-2.1-3.6
		c-1.3-0.7-2.9-0.7-4.2,0.1c-41.1,24.7-49.3,65.8-57.4,106.4c0,37.9-7.7,66.2-25.4,92.7c-9.1-33.4-34.6-50.3-59.2-66.8
		c-6.5-4.3-13.2-8.8-19.4-13.5c-1.5-1.1-3.5-1.1-5,0c-1.5,1.1-2.1,3.1-1.4,4.8c11.6,32.1,7.8,69.6,4,105.9
		C4.2,340.7-2.4,404,64,444.8C77.4,451.5,91.5,457,106,461c0.4,0.1,0.8,0.2,1.1,0.2c0,0,0.1,0,0.2,0c2.3,0,4.2-1.9,4.2-4.2
		c0-1.7-1-3.2-2.5-3.8c-25.1-19-22.2-46.7-19.2-76.1c1.6-15.6,3.3-31.6,0.6-46.5c0.3,0.2,0.6,0.4,1,0.6c13.4,9,26.1,17.4,29.1,35.4
		c0.3,1.7,1.5,3,3.1,3.4c1.6,0.4,3.3-0.2,4.3-1.6c12.1-16.1,17.3-32.9,17.2-55.2c3.5-17.8,6.9-34.7,20.6-46.2
		c0.6,25.7,4.2,55.1,21,84.5c0.9,1.5,2.5,2.4,4.3,2c1.7-0.3,3.1-1.6,3.4-3.3c1.7-8.3,8.1-32.9,27.1-42.6
		c-9.4,19.9-0.9,41.9,6.6,61.7c3.6,9.3,6.9,18,8.3,26.1c0.6,2.9,0.8,5.8,0.7,9.5c1.5,18.9-9.7,36.2-33.3,51.3
		c-1.7,1.1-2.4,3.3-1.6,5.2c0.7,1.6,2.2,2.5,3.8,2.5c0.3,0,0.7,0,1-0.1c3.4-0.9,6.9-1.9,10.7-3.2c59.1-29.6,92.3-64.5,99.3-103.7
		C317.3,356.6,317.3,356.3,317.4,355.9z"/>
	<path class="st0" d="M496,184.2H372.7h-64.4c-0.1,6.4,0.9,13.3,2.6,20.7h51.5v58.7h-31.5c2.6,7,5,13.9,7.1,20.7h34.7h51.3v58.7
		h-51.3h-26.3c-0.1,6.6-0.8,13.6-2.2,20.8h18.1v58.7H315c-5.8,6.9-12.5,13.8-20.3,20.7h78h123.3c5.7,0,10.4-4.6,10.4-10.3v-79.4
		v-79.5v-79.4C506.3,188.9,501.7,184.2,496,184.2z M485.6,422.6H383v-58.7h51.3h51.3V422.6z M485.6,343.1h-40.9v-58.7h40.9V343.1z
		 M485.6,263.7h-51.3H383V205h102.6V263.7z"/>
</g>
</svg>
