<?xml version="1.0" encoding="utf-8"?>
<!-- Generator: Adobe Illustrator 24.1.1, SVG Export Plug-In . SVG Version: 6.00 Build 0)  -->
<svg version="1.1" id="Layer_1" xmlns="http://www.w3.org/2000/svg" xmlns:xlink="http://www.w3.org/1999/xlink" x="0px" y="0px"
	 viewBox="0 0 512 512" style="enable-background:new 0 0 512 512;" xml:space="preserve">
<style type="text/css">
	.st0{fill:#474A56;}
</style>
<path class="st0" d="M441.7,89.7c0-54.4-93.7-82.9-186.2-82.9C163,6.8,69.3,35.3,69.3,89.7c0,0.2,0,0.3,0,0.5c0,0.1,0,0.2,0,0.3
	v110.7v111.4v111.4c0,54.4,93.7,82.9,186.2,82.9c92.5,0,186.2-28.5,186.2-82.9V312.5V201.1V90.4c0-0.1,0-0.2,0-0.3
	C441.7,90,441.7,89.9,441.7,89.7z M406.5,423.9c0,19-60.2,47.7-151,47.7c-90.7,0-150.9-28.7-150.9-47.7v-60.8
	c35.6,21.3,93.5,32.3,150.9,32.3s115.3-11,151-32.3V423.9z M406.5,312.5c0,19-60.2,47.7-151,47.7c-90.7,0-150.9-28.7-150.9-47.7
	v-60.8C140.2,273,198.1,284,255.5,284s115.3-11,151-32.4V312.5z M406.5,201.1c0,19-60.2,47.7-151,47.7
	c-90.7,0-150.9-28.7-150.9-47.7v-60.8c35.6,21.4,93.5,32.3,150.9,32.3s115.3-11,151-32.3V201.1z M255.5,137.4
	c-90.7,0-150.9-28.7-150.9-47.7c0-19,60.2-47.7,150.9-47.7c90.8,0,151,28.7,151,47.7C406.5,108.7,346.3,137.4,255.5,137.4z"/>
</svg>
