<?xml version="1.0" encoding="utf-8"?>
<!-- Generator: Adobe Illustrator 24.1.1, SVG Export Plug-In . SVG Version: 6.00 Build 0)  -->
<svg version="1.1" id="Layer_1" xmlns="http://www.w3.org/2000/svg" xmlns:xlink="http://www.w3.org/1999/xlink" x="0px" y="0px"
	 viewBox="0 0 512 512" style="enable-background:new 0 0 512 512;" xml:space="preserve">
<style type="text/css">
	.st0{fill:#474A56;}
</style>
<path class="st0" d="M432.8,80.2c-97.6-97.6-255.9-97.6-353.5,0c-97.6,97.7-97.7,255.9,0,353.6c97.6,97.6,255.9,97.7,353.6,0
	C530.4,336.2,530.4,177.8,432.8,80.2z M377.3,180.6L235.6,366.2c-4.5,5.9-11.4,9.5-18.9,9.6h-0.1h-0.5c-7.3,0-14.1-3.2-18.7-8.7
	l-60.7-71.8c-4.2-5-6.2-11.3-5.7-17.8c0.6-6.5,3.6-12.4,8.6-16.7c9.6-8.2,26.4-6.7,34.5,2.9l41.1,48.5l123.2-161.4
	c7.7-10,24.2-12.3,34.3-4.6c5.2,4,8.5,9.7,9.4,16.2C383,168.9,381.3,175.4,377.3,180.6z"/>
</svg>
