<?xml version="1.0" encoding="utf-8"?>
<!-- Generator: Adobe Illustrator 24.1.1, SVG Export Plug-In . SVG Version: 6.00 Build 0)  -->
<svg version="1.1" id="Layer_1" xmlns="http://www.w3.org/2000/svg" xmlns:xlink="http://www.w3.org/1999/xlink" x="0px" y="0px"
	 viewBox="0 0 512 512" style="enable-background:new 0 0 512 512;" xml:space="preserve">
<style type="text/css">
	.st0{fill:#474A56;}
</style>
<g>
	<path class="st0" d="M356.2,190.5l-70.7-1.4L262.3,123c-0.9-2.5-3.3-4.3-6-4.3s-5.1,1.7-6,4.3L227,189.1l-70.7,1.4
		c-2.7,0.1-5.1,1.8-6,4.4c-0.8,2.6,0.1,5.4,2.3,7.1l56.3,42.2l-20.5,66.9c-0.8,2.6,0.1,5.4,2.3,7c2.2,1.6,5.2,1.6,7.4,0.1l58.1-40
		l58.1,40c1.1,0.8,2.3,1.1,3.6,1.1c1.3,0,2.6-0.4,3.7-1.2c2.2-1.6,3.1-4.4,2.3-7l-20.5-66.9l56.3-42.2c2.2-1.6,3.1-4.4,2.2-7.1
		C361.3,192.3,358.9,190.6,356.2,190.5z"/>
	<path class="st0" d="M460.4,107C434.2,34.1,276.6,9.6,258.7,7l-2.4-0.4L253.8,7C235.9,9.6,78.3,34.1,52.1,107L51,110l0.1,3.3
		c0.4,14,13,342.5,200.8,392.2l4.4,1.2l4.4-1.2C448.5,455.8,461,127.3,461.5,113.3l0.1-3.3L460.4,107z M256.3,471.2
		c-149.8-44.9-169-320.9-170.8-355.4C103.3,77.3,197.7,50,256.3,41.3c58.5,8.8,153,36.1,170.8,74.5
		C425.3,150.2,406.1,426.3,256.3,471.2z"/>
</g>
</svg>
