<?xml version="1.0" encoding="utf-8"?>
<!-- Generator: Adobe Illustrator 24.1.1, SVG Export Plug-In . SVG Version: 6.00 Build 0)  -->
<svg version="1.1" id="Layer_1" xmlns="http://www.w3.org/2000/svg" xmlns:xlink="http://www.w3.org/1999/xlink" x="0px" y="0px"
	 viewBox="0 0 512 512" style="enable-background:new 0 0 512 512;" xml:space="preserve">
<style type="text/css">
	.st0{fill:#474A56;}
</style>
<path class="st0" d="M505.7,217.1C500.4,115.7,393.8,34.6,260.5,31.7c-1.6-0.1-3.2-0.1-4.9-0.1l-2.9,0
	C117.6,31.5,9.2,112.5,6.1,215.6C6,216.8,6,218.1,6,219.2c0.1,58.3,35.7,114.2,95.5,150.3c-4.2,7.2-10.5,17.1-18.5,29.1
	c-5.5,8.4-11.7,18-16.7,26.8l-1.7,3.2c-3.9,7.3-7.5,14.1-8,23.4c-1.8,9.9,6.6,24.8,18.5,27.3l1.4,0.3c2.2,0.5,4.3,0.7,6.6,0.7h0.1
	l0.5,0c11.9-0.8,20.9-5.5,31.4-11l5.8-3c13-7.2,28.8-16.8,42.7-25.3l2.5-1.5c6.4-3.9,12.7-7.7,18.7-11.4c11.3-6.8,20.3-12,26.7-15.3
	c3.1-1.6,5.7-2.8,8.3-3.8c10.2,1.2,20.7,2,32,2.3l7.4,0.1c135.1,0,243.4-81,246.6-184.4l0.2-9.9L505.7,217.1L505.7,217.1z
	 M142.8,389.9l1.4-2.7c4-7.5,7.8-14.6,8.3-24.9c0.7-7.2-3.3-19.8-14.3-24.9C84.2,309.6,51.9,265.4,52,219.2c0-0.7,0-1.2,0-2.1
	c0.8-77,90.8-139.6,200.6-139.6c2.1,0,4.1,0,6.2,0.1c111.8,2.4,201.9,67.9,201,146.1v2.4C459,302.9,369,365.4,259.2,365.4
	c-2.1,0-4.3,0-6.5-0.1c-10.1-0.2-20.2-1-29.5-2.1c-1.1-0.2-2.8-0.4-5.1-0.4c-11.8,0.8-20.3,5.4-30.2,10.7l-6.4,3.4
	c-11.6,6.5-25.4,14.9-38.7,23l-1.9,1.1c-2.5,1.5-5.1,3.1-7.6,4.6C136.8,400.2,140,395,142.8,389.9z"/>
</svg>
