<?xml version="1.0" encoding="utf-8"?>
<!-- Generator: Adobe Illustrator 24.1.1, SVG Export Plug-In . SVG Version: 6.00 Build 0)  -->
<svg version="1.1" id="Layer_1" xmlns="http://www.w3.org/2000/svg" xmlns:xlink="http://www.w3.org/1999/xlink" x="0px" y="0px"
	 viewBox="0 0 512 512" style="enable-background:new 0 0 512 512;" xml:space="preserve">
<style type="text/css">
	.st0{fill:#474A56;}
</style>
<path class="st0" d="M505.2,323.7l-31.6-99.7c-1-3.1-3.4-5.6-6.6-6.6c-3.1-1-6.6-0.5-9.3,1.4l-86.3,61.8c-3.1,2.3-4.8,6.1-4.2,9.9
	c0.6,3.8,3.2,7,6.9,8.3l38.7,12.8c-16.7,60.8-68.1,107.4-131.5,116.9V138.4c18-8.9,30.5-27.4,30.5-48.9c0-30.1-24.5-54.6-54.5-54.6
	c-30.1,0-54.5,24.5-54.5,54.6c0,21.4,12.5,40,30.5,48.9v290.1c-63.6-9.5-115.2-56.4-131.7-117.5l36.6-12.1c3.7-1.2,6.3-4.4,6.9-8.3
	c0.6-3.8-1-7.6-4.2-9.9l-86.3-61.8c-2.7-1.9-6.1-2.4-9.2-1.4c-3.1,1-5.6,3.5-6.6,6.6L6.8,325.3c-1.2,3.7-0.2,7.7,2.6,10.5
	c2,1.9,4.6,2.9,7.2,2.9c1.1,0,2.2-0.2,3.2-0.5l36.2-12C81,413.9,161.8,478.4,257.4,478.4c95.4,0,176-64.2,201.1-151.5l34.1,11.3
	c1.1,0.4,2.2,0.5,3.2,0.5c0,0,0.1,0,0.1,0c5.7,0,10.3-4.6,10.3-10.3C506.3,326.7,505.9,325.1,505.2,323.7z M257.4,69.3
	c11.1,0,20.2,9.1,20.2,20.2c0,11.1-9.1,20.2-20.2,20.2c-11.2,0-20.2-9.1-20.2-20.2C237.2,78.3,246.2,69.3,257.4,69.3z"/>
</svg>
