<?xml version="1.0" encoding="utf-8"?>
<!-- Generator: Adobe Illustrator 24.1.1, SVG Export Plug-In . SVG Version: 6.00 Build 0)  -->
<svg version="1.1" id="Layer_1" xmlns="http://www.w3.org/2000/svg" xmlns:xlink="http://www.w3.org/1999/xlink" x="0px" y="0px"
	 viewBox="0 0 512 512" style="enable-background:new 0 0 512 512;" xml:space="preserve">
<style type="text/css">
	.st0{fill:#474A56;}
</style>
<g>
	<path class="st0" d="M488.3,465.4H23.7c-9.8,0-17.7,7.9-17.7,17.7s7.9,17.7,17.7,17.7h464.5c9.8,0,17.7-8,17.7-17.7
		S498.1,465.4,488.3,465.4z"/>
	<path class="st0" d="M84.9,437.4H155c5.9,0,10.6-4.8,10.6-10.6V296c0-5.9-4.8-10.7-10.6-10.7H84.9c-5.9,0-10.6,4.8-10.6,10.7v130.7
		C74.2,432.6,79,437.4,84.9,437.4z"/>
	<path class="st0" d="M219.7,345c-5.9,0-10.6,4.8-10.6,10.7v71.1c0,5.9,4.8,10.6,10.6,10.6h70.1c5.9,0,10.6-4.8,10.6-10.6v-71.1
		c0-5.9-4.8-10.7-10.6-10.7H219.7z"/>
	<path class="st0" d="M354.5,211.9c-5.9,0-10.6,4.8-10.6,10.7v204.1c0,5.9,4.8,10.6,10.6,10.6h70.1c5.9,0,10.6-4.8,10.6-10.6V222.6
		c0-5.9-4.8-10.7-10.6-10.7H354.5z"/>
	<path class="st0" d="M112.1,164.5l121.1,98c2.6,2.1,5.8,3.2,8.9,3.2c4,0,7.9-1.7,10.7-4.9l154.8-178l23.9,19.9
		c1.9,1.6,4.4,2.5,6.8,2.5c1.4,0,2.8-0.3,4.2-0.9c3.7-1.6,6.2-5.1,6.4-9.1l4.9-72.8c0.2-3.4-1.2-6.7-3.8-8.9c-2.6-2.2-6.1-3-9.4-2.1
		l-70.7,17.8c-3.9,1-6.9,4.1-7.8,8c-0.9,3.9,0.5,8,3.6,10.5l20.2,16.8L240.4,231.8l-110.5-89.4c-6.1-4.9-15-4-20,2.1
		C105,150.7,106,159.6,112.1,164.5z"/>
</g>
</svg>
