<?xml version="1.0" encoding="utf-8"?>
<!-- Generator: Adobe Illustrator 24.1.1, SVG Export Plug-In . SVG Version: 6.00 Build 0)  -->
<svg version="1.1" id="Layer_1" xmlns="http://www.w3.org/2000/svg" xmlns:xlink="http://www.w3.org/1999/xlink" x="0px" y="0px"
	 viewBox="0 0 512 512" style="enable-background:new 0 0 512 512;" xml:space="preserve">
<style type="text/css">
	.st0{fill:#474A56;}
</style>
<g>
	<path class="st0" d="M256,6C118.2,6,6,118.1,6,256c0,137.9,112.2,250,250,250s250-112.1,250-250C506,118.1,393.9,6,256,6z
		 M256,452.9c-108.6,0-196.9-88.3-196.9-196.9c0-108.6,88.3-196.9,196.9-196.9c108.6,0,196.9,88.3,196.9,196.9
		C452.9,364.6,364.6,452.9,256,452.9z"/>
	<path class="st0" d="M354.3,246.1h-94.8V111.2c0-8.2-6.6-14.8-14.8-14.8c-8.2,0-14.8,6.6-14.8,14.8v154.6c0,3.1,1,6,2.6,8.4
		c3.2,6.7,9.9,11.3,17.8,11.3h103.9c10.9,0,19.7-8.8,19.7-19.7C374,255,365.2,246.1,354.3,246.1z"/>
</g>
</svg>
