<?xml version="1.0" encoding="utf-8"?>
<!-- Generator: Adobe Illustrator 24.1.1, SVG Export Plug-In . SVG Version: 6.00 Build 0)  -->
<svg version="1.1" id="Layer_1" xmlns="http://www.w3.org/2000/svg" xmlns:xlink="http://www.w3.org/1999/xlink" x="0px" y="0px"
	 viewBox="0 0 512 512" style="enable-background:new 0 0 512 512;" xml:space="preserve">
<style type="text/css">
	.st0{fill:#474A56;}
</style>
<g>
	<path class="st0" d="M259.2,248.9H142.2c-4.2,0-7.7,3.4-7.7,7.7c0,2.1,0.9,4,2.3,5.4c1.4,1.4,3.3,2.2,5.4,2.3l116.9,0
		c4.2,0,7.7-3.4,7.7-7.7C266.8,252.3,263.4,248.9,259.2,248.9z"/>
	<path class="st0" d="M259.2,295l-116.9,0c-4.2,0-7.7,3.5-7.7,7.7c0,2.1,0.9,4,2.3,5.4c1.4,1.4,3.3,2.3,5.4,2.3h116.9
		c4.2,0,7.7-3.4,7.7-7.7C266.8,298.4,263.4,295,259.2,295z"/>
	<path class="st0" d="M259.1,341l-116.9,0c-4.3,0-7.7,3.4-7.7,7.7c0,2.1,0.9,4,2.3,5.4c1.4,1.4,3.3,2.3,5.4,2.3h116.9
		c4.2,0,7.7-3.5,7.7-7.7C266.8,344.5,263.4,341,259.1,341z"/>
	<path class="st0" d="M423.7,248.9h-117c-4.2,0-7.7,3.4-7.7,7.7c0,2.1,0.8,4,2.3,5.4c1.4,1.4,3.3,2.2,5.4,2.2l116.9,0
		c4.2,0,7.7-3.5,7.7-7.7C431.3,252.3,427.9,248.9,423.7,248.9z"/>
	<path class="st0" d="M423.7,295l-116.9,0c-4.2,0-7.7,3.5-7.7,7.7c0,2.1,0.9,4,2.3,5.4c1.4,1.4,3.3,2.3,5.4,2.3h116.9
		c4.2,0,7.7-3.4,7.7-7.7C431.3,298.4,427.9,295,423.7,295z"/>
	<path class="st0" d="M423.7,341l-116.9,0c-4.2,0-7.7,3.4-7.7,7.7c0,2.1,0.9,4,2.3,5.4c1.4,1.4,3.3,2.3,5.4,2.3h116.9
		c4.2,0,7.7-3.5,7.7-7.7C431.3,344.5,427.9,341,423.7,341z"/>
	<path class="st0" d="M462.1,89.6l-388.9,0c-7.5,0-13.5,6-13.5,13.5l-0.1,17.7l-40.1,0h0c-3.6,0-7,1.4-9.6,4c-2.6,2.5-4,6-4,9.6
		l0,246.9c0,13.2,5.2,43.8,53.8,43.8l402.4,0c24.2,0,43.8-19.7,43.8-43.8V133.4C506,109.2,486.3,89.6,462.1,89.6z M59.6,383
		c0,1.8-0.3,3.4-0.8,5c-1.8,5.8-6.7,10-12.5,10c-7.3,0-13.3-6.7-13.3-15c0-0.1,0-0.2,0-0.2c0-0.5,0-1,0-1.5V147.9l26.5,0V383z
		 M478.9,381.2c0,9.2-7.5,16.7-16.7,16.7H83.9c1.1-2.6,2-5.1,2.5-7.2c0.2-1,0.3-2,0.3-3V134.4l0.1-17.8h375.4
		c9.2,0,16.7,7.5,16.7,16.7V381.2z"/>
	<path class="st0" d="M428.6,160.4l-290.4,0c-2.1,0-3.8,1.7-3.8,3.8l0,46.3c0,1,0.4,2,1.1,2.7c0.7,0.7,1.7,1.1,2.7,1.1l290.4,0
		c2.1,0,3.8-1.7,3.8-3.8l0-46.3C432.4,162.2,430.6,160.4,428.6,160.4z"/>
</g>
</svg>
