<?xml version="1.0" encoding="utf-8"?>
<!-- Generator: Adobe Illustrator 24.1.1, SVG Export Plug-In . SVG Version: 6.00 Build 0)  -->
<svg version="1.1" id="Layer_1" xmlns="http://www.w3.org/2000/svg" xmlns:xlink="http://www.w3.org/1999/xlink" x="0px" y="0px"
	 viewBox="0 0 512 512" style="enable-background:new 0 0 512 512;" xml:space="preserve">
<style type="text/css">
	.st0{fill:#474A56;}
</style>
<g>
	<path class="st0" d="M358.1,244.3H152.5c-3.8,0-7,3.1-7,7c0,3.8,3.1,7,7,7h205.6c3.9,0,7-3.1,7-7
		C365,247.4,361.9,244.3,358.1,244.3z"/>
	<path class="st0" d="M358.1,379.9H152.5c-3.8,0-7,3.1-7,7s3.1,7,7,7h205.6c3.9,0,7-3.1,7-7S361.9,379.9,358.1,379.9z"/>
	<path class="st0" d="M358.1,312.4H152.5c-3.8,0-7,3.1-7,7c0,3.8,3.1,7,7,7h205.6c3.9,0,7-3.1,7-7
		C365,315.6,361.9,312.4,358.1,312.4z"/>
	<path class="st0" d="M152.5,189.7h82.3c3.9,0,7-3.1,7-7c0-3.8-3.1-7-7-7h-82.3c-3.8,0-7,3.1-7,7
		C145.5,186.6,148.6,189.7,152.5,189.7z"/>
	<path class="st0" d="M448.9,82.9L376,11c-3.2-3.2-7.6-5-12.2-5H75.3c-9.6,0-17.4,7.8-17.4,17.4v465.2c0,9.6,7.8,17.4,17.4,17.4
		h361.5c9.6,0,17.4-7.8,17.4-17.4V95.2C454.1,90.6,452.3,86.1,448.9,82.9z M419.4,471.2H92.7V40.8h260.7v54.6
		c0,5.8,4.7,10.4,10.4,10.4h55.5V471.2z"/>
</g>
</svg>
