<?xml version="1.0" encoding="utf-8"?>
<!-- Generator: Adobe Illustrator 24.1.1, SVG Export Plug-In . SVG Version: 6.00 Build 0)  -->
<svg version="1.1" id="Layer_1" xmlns="http://www.w3.org/2000/svg" xmlns:xlink="http://www.w3.org/1999/xlink" x="0px" y="0px"
	 viewBox="0 0 512 512" style="enable-background:new 0 0 512 512;" xml:space="preserve">
<style type="text/css">
	.st0{fill:#474A56;}
</style>
<path class="st0" d="M506,191.6c0-0.3-0.1-0.5-0.1-0.7c-0.1-0.7-0.2-1.3-0.4-1.9c-0.1-0.3-0.2-0.6-0.3-0.8c-0.2-0.6-0.5-1.2-0.8-1.7
	c-0.2-0.2-0.3-0.5-0.4-0.7c-0.5-0.7-1.1-1.4-1.8-2c0,0,0,0,0,0L344.9,54.4c-0.9-0.7-2-1.3-3-1.7c-9.6-7.7-26.3-12.6-46.1-12.6
	c-31.4,0-55,12.3-55,28.6v3l-66.2,13.5c-9.9-6.3-25.2-10.2-42.8-10.2c-31.3,0-55,12.3-55,28.6v1.6l-62.3,12.7
	c-0.4,0.1-0.8,0.3-1.2,0.4c-0.4,0.1-0.9,0.2-1.3,0.4c-0.1,0-0.1,0.1-0.2,0.1c-0.5,0.2-0.9,0.6-1.3,0.9c-0.4,0.3-0.8,0.5-1.1,0.8
	c-0.4,0.3-0.6,0.7-1,1.1c-0.3,0.4-0.7,0.7-0.9,1.1c-0.2,0.4-0.4,0.9-0.6,1.3c-0.2,0.5-0.4,0.9-0.6,1.4c0,0.1-0.1,0.1-0.1,0.2
	c-0.1,0.4-0.1,0.9-0.1,1.3c0,0.4-0.2,0.8-0.2,1.2v205c0,3.1,1.4,6.1,3.8,8.1l157.3,130c0,0,0,0,0,0c0,0,0,0,0,0
	c0.7,0.6,1.5,0.9,2.3,1.3c0.3,0.2,0.5,0.4,0.8,0.5c1.1,0.4,2.3,0.6,3.5,0.6c0.7,0,1.4-0.1,2.1-0.2l321.7-66.1
	c4.9-1,8.4-5.3,8.4-10.3v-205C506.1,191.8,506,191.7,506,191.6z M350.7,105.5V86.3l23.8,19.6c-3.1-0.2-6.3-0.4-9.6-0.4
	c-5,0-9.8,0.3-14.3,0.9C350.7,106.1,350.7,105.8,350.7,105.5z M365,119.4c15.6,0,27.9,3.5,34.8,7.6c1.2,0.7,2.2,1.4,3.1,2.1l0.3,0.2
	c1.9,1.6,2.8,3.2,2.8,4.6c0,5.8-16.4,14.6-41,14.6c-24.6,0-41-8.8-41-14.6c0-3.4,5.8-7.9,15.7-11C346.4,120.9,354.9,119.4,365,119.4
	z M261,61.7c6.9-4.1,19.2-7.6,34.8-7.6c7.6,0,14.3,0.9,20.2,2.2c6.1,1.4,11.1,3.3,14.6,5.3c4,2.3,6.2,4.9,6.2,7
	c0,1.7-1.6,3.7-4.4,5.7c-6.4,4.6-19.4,8.9-36.6,8.9c-2,0-3.8-0.1-5.7-0.3c-21.2-1.2-35.1-8.9-35.3-14.2c0,0,0-0.1,0-0.1
	C254.8,66.5,257,64,261,61.7z M183.1,150.6c6.7-2,15-3.4,24.8-3.4c15.6,0,27.9,3.5,34.8,7.6c4,2.4,6.2,4.9,6.2,7
	c0,5.8-16.4,14.6-41,14.6c-24.6,0-41-8.8-41-14.6C166.9,158.3,173,153.7,183.1,150.6z M91.2,102.1c0.7-1.8,2.6-3.8,5.8-5.7
	c6.9-4.1,19.2-7.6,34.8-7.6c6.3,0,12,0.6,17,1.5c7.5,1.4,13.6,3.6,17.7,6.1c4,2.3,6.2,4.9,6.2,7c0,1.2-0.9,2.5-2.2,3.9
	c-5.1,5.2-19.3,10.7-38.8,10.7c-3.8,0-7.3-0.3-10.6-0.6c-18.6-2-30.4-9-30.4-13.9C90.8,103,91,102.5,91.2,102.1z M163.4,440.7
	L27,328V150l17,13.7l119.4,96.9V440.7z M40.4,133.8l36.4-7.4v13.8c0,16.3,23.6,28.5,55,28.5c7.6,0,14.8-0.7,21.2-2.1v31.9
	c0,16.3,23.6,28.5,55,28.5c31.3,0,55-12.3,55-28.5v-36.8c0-16.3-23.6-28.6-55-28.6c-7.6,0-14.8,0.7-21.2,2.1V104l54.1-11v12.5
	c0,16.3,23.6,28.5,55,28.5c5,0,9.8-0.3,14.3-0.9c0,0.3-0.1,0.6-0.1,0.9v36.8c0,16.3,23.6,28.5,55,28.5c31.4,0,55-12.3,55-28.5v-27.6
	l51.9,42.7l-295.1,58.5L40.4,133.8z M485.1,388.3l-300.7,61.8V264.2l300.7-59.6V388.3z"/>
</svg>
