<?xml version="1.0" encoding="utf-8"?>
<!-- Generator: Adobe Illustrator 24.1.1, SVG Export Plug-In . SVG Version: 6.00 Build 0)  -->
<svg version="1.1" id="Layer_1" xmlns="http://www.w3.org/2000/svg" xmlns:xlink="http://www.w3.org/1999/xlink" x="0px" y="0px"
	 viewBox="0 0 512 512" style="enable-background:new 0 0 512 512;" xml:space="preserve">
<style type="text/css">
	.st0{fill:#474A56;}
</style>
<path class="st0" d="M432.8,79.2c-97.6-97.6-255.9-97.6-353.5,0c-97.6,97.7-97.7,255.9,0,353.6c97.6,97.6,255.9,97.7,353.6,0
	C530.4,335.2,530.4,176.8,432.8,79.2z M355.9,356c-11.4,11.4-29.9,11.5-41.3,0l-58.6-58.6l-58.5,58.5c-11.5,11.5-29.9,11.5-41.4,0.1
	c-11.4-11.4-11.4-29.9,0.1-41.4l58.5-58.5l-58.5-58.5c-11.5-11.5-11.4-29.9,0-41.3c11.4-11.5,29.9-11.5,41.3,0l58.5,58.5l58.6-58.6
	c11.5-11.5,29.9-11.4,41.3,0c11.5,11.5,11.5,29.9,0,41.3L297.3,256l58.6,58.6C367.3,326,367.4,344.5,355.9,356z"/>
</svg>
