<?xml version="1.0" encoding="utf-8"?>
<!-- Generator: Adobe Illustrator 24.1.1, SVG Export Plug-In . SVG Version: 6.00 Build 0)  -->
<svg version="1.1" id="Layer_1" xmlns="http://www.w3.org/2000/svg" xmlns:xlink="http://www.w3.org/1999/xlink" x="0px" y="0px"
	 viewBox="0 0 512 512" style="enable-background:new 0 0 512 512;" xml:space="preserve">
<style type="text/css">
	.st0{fill:#474A56;}
</style>
<g>
	<path class="st0" d="M256.1,450.5c66.9-24,106.8-107.5,128.6-192.9H256.1V450.5z"/>
	<path class="st0" d="M106.2,121.6c2.4,39.1,9,87.9,21.3,136h128.6V63.1C194.6,72.7,123.1,97.7,106.2,121.6z"/>
	<path class="st0" d="M460.3,108C434,35.1,276.4,10.6,258.5,8l-2.4-0.4L253.7,8C235.8,10.6,78.1,35.1,51.9,108l-1.1,3.1l0.1,3.2
		c0.4,13.9,13,342.5,200.8,392.2l4.4,1.2l4.4-1.2c187.8-49.7,200.4-378.2,200.8-392.2l0.1-3.2L460.3,108z M256.1,472.2
		c-149.8-44.9-169-320.9-170.8-355.4C103.1,78.3,197.6,51,256.1,42.3c58.5,8.8,153,36.1,170.8,74.5
		C425.1,151.2,405.9,427.3,256.1,472.2z"/>
</g>
</svg>
