<?xml version="1.0" encoding="utf-8"?>
<!-- Generator: Adobe Illustrator 24.1.1, SVG Export Plug-In . SVG Version: 6.00 Build 0)  -->
<svg version="1.1" id="Layer_1" xmlns="http://www.w3.org/2000/svg" xmlns:xlink="http://www.w3.org/1999/xlink" x="0px" y="0px"
	 viewBox="0 0 512 512" style="enable-background:new 0 0 512 512;" xml:space="preserve">
<style type="text/css">
	.st0{fill:#474A56;}
</style>
<g>
	<path class="st0" d="M435.4,181.5l-99.2,131.9c8.8,3.2,16.3,8.9,21.7,16.4l98.9-131.5C448.1,194.9,440.7,189.1,435.4,181.5z"/>
	<path class="st0" d="M202.9,181.8c-5.3,7.5-12.8,13.3-21.6,16.6l101.5,131.8c5.3-7.5,12.8-13.3,21.6-16.6L202.9,181.8z"/>
	<path class="st0" d="M123,174l-58.7,51.4c7.7,5.1,13.7,12.4,17.2,21l59.4-52C133.1,189.5,126.8,182.4,123,174z"/>
	<path class="st0" d="M194,170.2c2.4-4.5,3.9-9.6,3.9-15.1c0-18-14.7-32.7-32.7-32.7c-18,0-32.7,14.6-32.7,32.7
		c0,3.2,0.6,6.3,1.5,9.2c2.7,9.2,9.2,16.7,17.8,20.5c4.1,1.9,8.6,2.9,13.4,2.9c2.5,0,5-0.3,7.3-0.9
		C181.9,184.7,189.6,178.5,194,170.2z"/>
	<path class="st0" d="M349.2,341.5c-1.1-2-2.4-3.9-3.9-5.6c0-0.1-0.1-0.1-0.1-0.2c-1.4-1.6-3-3.1-4.6-4.4c-0.2-0.1-0.3-0.3-0.5-0.4
		c-1.6-1.2-3.3-2.3-5.2-3.2c-0.3-0.1-0.5-0.3-0.8-0.4c-2.1-0.9-4.2-1.7-6.5-2.2c0,0,0,0,0,0c-2.3-0.5-4.6-0.8-7-0.8
		c-4.9,0-9.6,1.2-13.8,3.2c-0.2,0.1-0.4,0.3-0.6,0.4c-1.9,0.9-3.6,2-5.3,3.3c-0.2,0.1-0.3,0.3-0.5,0.4c-1.7,1.4-3.3,2.9-4.6,4.5
		c-0.1,0.1-0.1,0.1-0.2,0.2c-1.4,1.7-2.6,3.5-3.6,5.4c-0.1,0.1-0.1,0.2-0.2,0.3l0,0c-2.4,4.5-3.9,9.6-3.9,15.1
		c0,18,14.6,32.7,32.7,32.7c18,0,32.7-14.6,32.7-32.7C353.2,351.3,351.7,346.1,349.2,341.5L349.2,341.5z"/>
	<path class="st0" d="M473.3,122.4c-18.1,0-32.7,14.6-32.7,32.7c0,5.3,1.4,10.2,3.6,14.7c4.3,8.4,11.9,14.7,21.3,17
		c2.5,0.6,5.1,1,7.8,1c18,0,32.7-14.6,32.7-32.7C506,137,491.4,122.4,473.3,122.4z"/>
	<path class="st0" d="M53.4,234.8c-4.4-2.3-9.4-3.6-14.7-3.6c-18,0-32.7,14.6-32.7,32.7c0,18,14.6,32.7,32.7,32.7
		c18,0,32.7-14.6,32.7-32.7c0-2.7-0.4-5.3-1-7.7C68.1,246.8,61.8,239.1,53.4,234.8z"/>
</g>
</svg>
