<?xml version="1.0" encoding="utf-8"?>
<!-- Generator: Adobe Illustrator 24.1.1, SVG Export Plug-In . SVG Version: 6.00 Build 0)  -->
<svg version="1.1" id="Layer_1" xmlns="http://www.w3.org/2000/svg" xmlns:xlink="http://www.w3.org/1999/xlink" x="0px" y="0px"
	 viewBox="0 0 512 512" style="enable-background:new 0 0 512 512;" xml:space="preserve">
<style type="text/css">
	.st0{fill:#474A56;}
</style>
<g>
	<path class="st0" d="M432.1,247.1v191.4h-390V103.4h248.2c-6.7-10.7-9.2-23.5-6.8-36.1H24c-10,0-18,8.1-18,18v371.2
		c0,10,8.1,18,18,18h426.1c10,0,18-8.1,18-18V260.7c-0.5,0-1,0.1-1.6,0.1C453.7,260.9,441.5,256,432.1,247.1z"/>
	<path class="st0" d="M501.9,41.6c-3.2-3.2-7.8-4.7-12.2-4l-159,25.2c-3.2,0.5-6,2.2-8.1,4.5l0,0l0,0c-0.6,0.7-1.2,1.4-1.7,2.2
		c-0.6,0.9-1.1,1.8-1.4,2.9c-1.6,5.1-0.3,10.6,3.5,14.4l43.6,43.5L244.2,252.5c-12.9,12.9-12.9,33.8,0,46.7
		c12.9,12.9,33.8,12.9,46.7,0l122.2-122.2l19,19l0,0l24.5,24.5c0.8,0.8,1.8,1.5,2.8,2.1c0.3,0.2,0.6,0.3,0.9,0.5
		c0.8,0.4,1.6,0.7,2.5,1c0.3,0.1,0.5,0.2,0.8,0.2c1,0.2,2,0.4,3.1,0.4c0.1,0,0.2,0,0.2,0c1.4,0,2.8-0.2,4.1-0.7
		c5.1-1.6,8.8-6,9.6-11.2l25.2-159C506.5,49.3,505.1,44.8,501.9,41.6z"/>
</g>
</svg>
