<?xml version="1.0" encoding="utf-8"?>
<!-- Generator: Adobe Illustrator 24.1.1, SVG Export Plug-In . SVG Version: 6.00 Build 0)  -->
<svg version="1.1" id="Layer_1" xmlns="http://www.w3.org/2000/svg" xmlns:xlink="http://www.w3.org/1999/xlink" x="0px" y="0px"
	 viewBox="0 0 512 512" style="enable-background:new 0 0 512 512;" xml:space="preserve">
<path d="M59.6,470.3h80.4v-80.4H59.6V470.3z M157.8,470.3h89.3v-80.4h-89.3V470.3z M59.6,372.1h80.4v-89.3H59.6V372.1z M157.8,372.1
	h89.3v-89.3h-89.3V372.1z M59.6,264.9h80.4v-80.4H59.6V264.9z M264.9,470.3h89.3v-80.4h-89.3V470.3z M157.8,264.9h89.3v-80.4h-89.3
	V264.9z M372.1,470.3h80.4v-80.4h-80.4V470.3z M264.9,372.1h89.3v-89.3h-89.3V372.1z M166.7,131V50.6c0-2.4-0.9-4.5-2.7-6.3
	s-3.9-2.7-6.3-2.7h-17.9c-2.4,0-4.5,0.9-6.3,2.7c-1.8,1.8-2.7,3.9-2.7,6.3V131c0,2.4,0.9,4.5,2.7,6.3c1.8,1.8,3.9,2.7,6.3,2.7h17.9
	c2.4,0,4.5-0.9,6.3-2.7C165.8,135.5,166.7,133.4,166.7,131z M372.1,372.1h80.4v-89.3h-80.4V372.1z M264.9,264.9h89.3v-80.4h-89.3
	V264.9z M372.1,264.9h80.4v-80.4h-80.4V264.9z M381,131V50.6c0-2.4-0.9-4.5-2.7-6.3s-3.9-2.7-6.3-2.7h-17.9c-2.4,0-4.5,0.9-6.3,2.7
	c-1.8,1.8-2.7,3.9-2.7,6.3V131c0,2.4,0.9,4.5,2.7,6.3c1.8,1.8,3.9,2.7,6.3,2.7h17.9c2.4,0,4.5-0.9,6.3-2.7
	C380.1,135.5,381,133.4,381,131z M488.1,113.1v357.1c0,9.7-3.5,18-10.6,25.1c-7.1,7.1-15.4,10.6-25.1,10.6H59.6
	c-9.7,0-18-3.5-25.1-10.6c-7.1-7.1-10.6-15.4-10.6-25.1V113.1c0-9.7,3.5-18,10.6-25.1s15.4-10.6,25.1-10.6h35.7V50.6
	c0-12.3,4.4-22.8,13.1-31.5S127.7,6,139.9,6h17.9c12.3,0,22.8,4.4,31.5,13.1s13.1,19.3,13.1,31.5v26.8h107.1V50.6
	c0-12.3,4.4-22.8,13.1-31.5C331.4,10.4,341.9,6,354.2,6h17.9c12.3,0,22.8,4.4,31.5,13.1c8.7,8.7,13.1,19.3,13.1,31.5v26.8h35.7
	c9.7,0,18,3.5,25.1,10.6C484.6,95.1,488.1,103.5,488.1,113.1z"/>
</svg>
