<?xml version="1.0" encoding="utf-8"?>
<!-- Generator: Adobe Illustrator 24.0.2, SVG Export Plug-In . SVG Version: 6.00 Build 0)  -->
<svg version="1.1" id="Layer_1" xmlns="http://www.w3.org/2000/svg" xmlns:xlink="http://www.w3.org/1999/xlink" x="0px" y="0px"
	 viewBox="0 0 512 512" style="enable-background:new 0 0 512 512;" xml:space="preserve">
<path d="M265.8,57.6c-3.3,1.4-4.9,5.1-4.9,11V180c-35.7,2-67.6,7.9-95.8,17.8s-51.8,22.9-70.9,38.9S59,271.8,46.1,294
	c-12.9,22.2-22.4,45.9-28.7,70.9S7.4,417.4,6,447.2c10.2-21.8,24.4-41,42.7-57.6s39.1-29.7,62.4-39.3s47.5-17,72.4-22.1
	c24.9-5.1,50.7-7.9,77.3-8.5v123.6c0,5.9,1.6,9.6,4.9,11c3.3,1.4,7.2,0.3,11.7-3.4l221.8-181.4c4.5-3.7,6.8-8.2,6.8-13.6
	s-2.3-9.9-6.8-13.6L277.5,61C272.9,57.3,269,56.2,265.8,57.6z"/>
</svg>
