<?xml version="1.0" encoding="utf-8"?>
<!-- Generator: Adobe Illustrator 24.0.2, SVG Export Plug-In . SVG Version: 6.00 Build 0)  -->
<svg version="1.1" id="Layer_1" xmlns="http://www.w3.org/2000/svg" xmlns:xlink="http://www.w3.org/1999/xlink" x="0px" y="0px" viewBox="0 0 512 512" style="enable-background:new 0 0 512 512;" xml:space="preserve">
  <path d="M443.5,6h-125l31.3,281.3c0,51.8-42,93.8-93.8,93.8s-93.8-42-93.8-93.8L193.5,6h-125L37.3,287.3
	C37.3,408.1,135.2,506,256,506s218.8-97.9,218.8-218.8L443.5,6z M385.8,417.1c-34.7,34.7-80.8,53.8-129.8,53.8
	s-95.2-19.1-129.8-53.8c-34.3-34.2-53.3-79.6-53.8-128l17.6-158.6h54.3l-17.2,154.8v1.9c0,34.4,13.4,66.8,37.7,91.2
	c24.3,24.3,56.7,37.8,91.2,37.8s66.8-13.4,91.2-37.8c24.3-24.3,37.8-56.7,37.8-91.2v-1.9l-0.2-1.9l-17-152.8H422l17.6,158.6
	C439.2,337.4,420.1,382.8,385.8,417.1L385.8,417.1z" />
</svg>