<?xml version="1.0" encoding="utf-8"?>
<!-- Generator: Adobe Illustrator 24.0.2, SVG Export Plug-In . SVG Version: 6.00 Build 0)  -->
<svg version="1.1" id="Layer_1" xmlns="http://www.w3.org/2000/svg" xmlns:xlink="http://www.w3.org/1999/xlink" x="0px" y="0px"
	 viewBox="0 0 512 512" style="enable-background:new 0 0 512 512;" xml:space="preserve">
<path d="M482.6,365.4h-7.8V263.8c0-30.2-24.5-54.7-54.7-54.7H287.3v-62.5h7.8c12.9,0,23.4-10.6,23.4-23.4V45.1
	c0-12.9-10.6-23.4-23.4-23.4h-78.1c-12.9,0-23.4,10.5-23.4,23.4v78.1c0,12.9,10.6,23.4,23.4,23.4h7.8v62.5H91.9
	c-30.2,0-54.7,24.5-54.7,54.7v101.6h-7.8C16.6,365.4,6,375.9,6,388.8v78.1c0,12.9,10.6,23.4,23.4,23.4h78.1
	c12.9,0,23.4-10.6,23.4-23.4v-78.1c0-12.9-10.5-23.4-23.4-23.4h-7.8v-93.8h125v93.8h-7.8c-12.9,0-23.4,10.6-23.4,23.4v78.1
	c0,12.9,10.6,23.4,23.4,23.4h78.1c12.9,0,23.4-10.6,23.4-23.4v-78.1c0-12.9-10.6-23.4-23.4-23.4h-7.8v-93.8h125v93.8h-7.8
	c-12.9,0-23.4,10.6-23.4,23.4v78.1c0,12.9,10.6,23.4,23.4,23.4h78.1c12.9,0,23.4-10.6,23.4-23.4v-78.1
	C506,375.9,495.4,365.4,482.6,365.4z M99.8,459.1H37.3v-62.5h62.5V459.1z M287.3,459.1h-62.5v-62.5h62.5V459.1z M224.8,115.4V52.9
	h62.5v62.5H224.8z M474.8,459.1h-62.5v-62.5h62.5V459.1z"/>
</svg>
