<?xml version="1.0" encoding="utf-8"?>
<!-- Generator: Adobe Illustrator 24.0.2, SVG Export Plug-In . SVG Version: 6.00 Build 0)  -->
<svg version="1.1" id="Layer_1" xmlns="http://www.w3.org/2000/svg" xmlns:xlink="http://www.w3.org/1999/xlink" x="0px" y="0px"
	 viewBox="0 0 512 512" style="enable-background:new 0 0 512 512;" xml:space="preserve">
<path d="M506,224.8h-49.3c-13.5-87-82.4-156-169.5-169.5V6h-62.5v49.3c-87,13.5-156,82.4-169.5,169.5H6v62.5h49.3
	c13.5,87,82.4,156,169.5,169.5V506h62.5v-49.3c87-13.5,156-82.4,169.5-169.5H506V224.8z M393.1,224.8h-48.7
	c-9.4-26.6-30.5-47.8-57.2-57.2v-48.7C339.8,130.8,381.2,172.2,393.1,224.8z M256,287.3c-17.3,0-31.3-14-31.3-31.3
	s14-31.3,31.3-31.3s31.3,14,31.3,31.3S273.3,287.3,256,287.3z M224.8,118.9v48.7c-26.6,9.4-47.8,30.5-57.2,57.2h-48.7
	C130.8,172.3,172.2,130.8,224.8,118.9z M118.9,287.3h48.7c9.4,26.6,30.5,47.8,57.2,57.2v48.7C172.3,381.2,130.8,339.8,118.9,287.3z
	 M287.3,393.1v-48.7c26.6-9.4,47.8-30.5,57.2-57.2h48.7C381.2,339.8,339.8,381.2,287.3,393.1z"/>
</svg>
