<?xml version="1.0" encoding="utf-8"?>
<!-- Generator: Adobe Illustrator 24.0.2, SVG Export Plug-In . SVG Version: 6.00 Build 0)  -->
<svg version="1.1" id="Layer_1" xmlns="http://www.w3.org/2000/svg" xmlns:xlink="http://www.w3.org/1999/xlink" x="0px" y="0px"
	 viewBox="0 0 512 512" enable-background="new 0 0 512 512" xml:space="preserve">
<g>
	<rect x="177.9" y="412.3" width="312.5" height="62.5"/>
	<rect x="177.9" y="224.8" width="312.5" height="62.5"/>
	<rect x="177.9" y="37.3" width="312.5" height="62.5"/>
	<polygon points="84.1,6 84.1,131 52.9,131 52.9,37.3 21.6,37.3 21.6,6 	"/>
	<polygon points="52.9,262.8 52.9,287.3 115.4,287.3 115.4,318.5 21.6,318.5 21.6,247.2 84.1,217.9 84.1,193.5 21.6,193.5 
		21.6,162.2 115.4,162.2 115.4,233.5 	"/>
	<polygon points="115.4,349.8 115.4,506 21.6,506 21.6,474.8 84.1,474.8 84.1,443.5 21.6,443.5 21.6,412.3 84.1,412.3 84.1,381 
		21.6,381 21.6,349.8 	"/>
</g>
</svg>
