<?xml version="1.0" encoding="utf-8"?>
<!-- Generator: Adobe Illustrator 24.0.2, SVG Export Plug-In . SVG Version: 6.00 Build 0)  -->
<svg version="1.1" id="Layer_1" xmlns="http://www.w3.org/2000/svg" xmlns:xlink="http://www.w3.org/1999/xlink" x="0px" y="0px"
	 viewBox="0 0 512 512" enable-background="new 0 0 512 512" xml:space="preserve">
<path d="M249.7,92.6c-0.9,0.3-11.7,15.3,0.8,27.9C258.9,102.2,250,92.5,249.7,92.6 M255,166.1c-6.3,21.5-14.6,44.7-23.5,65.7
	c18.4-7,38.4-13.2,57.1-17.5C276.7,200.7,264.9,183.7,255,166.1 M320.7,223.3c7.2,5.4,8.9,8.2,13.6,8.2c2.1,0,7.9-0.1,10.6-3.8
	c1.3-1.8,1.8-3,2-3.6c-1.1-0.6-2.5-1.7-10.3-1.7C332.2,222.4,326.6,222.6,320.7,223.3 M200.8,261.9c-18.8,10.4-26.5,19-27,23.8
	c-0.1,0.8-0.3,2.9,3.8,6C178.8,291.3,186.5,287.9,200.8,261.9 M177.3,306.4c-3.1,0-6-1-8.5-2.8c-9.2-6.8-10.4-14.3-9.8-19.5
	c1.6-14.1,19.3-28.9,52.6-44c13.2-28.6,25.8-63.9,33.3-93.4c-8.8-18.9-17.3-43.4-11.1-57.7c2.2-5,4.9-8.9,10-10.6
	c2-0.7,7.1-1.5,8.9-1.5c4.6,0,9.1,5.5,11.2,9.1c4,6.6,4,14.4,3.4,21.9c-0.6,7.3-1.8,14.5-3.3,21.6c-1,5.2-2.2,10.5-3.5,15.7
	c11.9,24.2,28.6,48.8,44.7,65.7c11.5-2.1,21.5-3.1,29.5-3.1c13.8,0,22.1,3.2,25.5,9.7c2.8,5.4,1.7,11.7-3.4,18.8
	c-4.9,6.8-11.6,10.3-19.5,10.3c-10.7,0-23.2-6.7-37.1-19.9c-25,5.2-54.1,14.3-77.7,24.5c-7.4,15.4-14.4,27.8-21,36.9
	C192.8,300.6,185,306.4,177.3,306.4"/>
<g>
	<path d="M454.2,117.8c-10.8-14.8-26-32.1-42.6-48.7s-33.9-31.7-48.7-42.6C337.7,8.1,325.5,6,318.5,6H76.3
		C54.8,6,37.3,23.5,37.3,45.1v421.9c0,21.5,17.5,39.1,39.1,39.1h359.4c21.5,0,39.1-17.5,39.1-39.1V162.3
		C474.8,155.3,472.6,143,454.2,117.8z M349.7,55.8c11.2,8.7,24.8,20.4,39.7,35.4h0c15,15,26.8,28.5,35.4,39.7h-75.2V55.8z
		 M76.3,37.3c0,0,242.2,0,242.2,0v109.4c0,8.6,7,15.6,15.6,15.6h109.4v157.6h-375V45.1C68.5,40.8,72.1,37.3,76.3,37.3z M123.6,443.5
		v-35.3v-53c0-4.9,4-8.8,8.8-8.8h26.5c19.5,0,35.3,15.8,35.3,35.3c0,19.5-15.8,35.3-35.3,35.3h-17.7v26.5c0,4.9-4,8.8-8.8,8.8
		C127.5,452.3,123.6,448.3,123.6,443.5z M220.7,443.5v-88.3c0-4.9,4-8.8,8.8-8.8h8.8c29.2,0,53,23.8,53,53s-23.8,53-53,53h-8.8
		C224.6,452.3,220.7,448.3,220.7,443.5z M379.6,390.5c4.9,0,8.8,4,8.8,8.8c0,4.9-4,8.8-8.8,8.8h-44.1v35.3c0,4.9-4,8.8-8.8,8.8
		c-4.9,0-8.8-4-8.8-8.8v-88.3c0-4.9,4-8.8,8.8-8.8h53c4.9,0,8.8,4,8.8,8.8c0,4.9-4,8.8-8.8,8.8h-44.1v26.5H379.6z"/>
	<path d="M176.6,381.7c0-9.7-7.9-17.7-17.7-17.7h-17.7v35.3h17.7C168.6,399.3,176.6,391.4,176.6,381.7z"/>
	<path d="M273.7,399.3c0-19.5-15.8-35.3-35.3-35.3v70.6C257.8,434.6,273.7,418.8,273.7,399.3z"/>
</g>
</svg>
