<?xml version="1.0" encoding="utf-8"?>
<!-- Generator: Adobe Illustrator 24.0.2, SVG Export Plug-In . SVG Version: 6.00 Build 0)  -->
<svg version="1.1" id="Layer_1" xmlns="http://www.w3.org/2000/svg" xmlns:xlink="http://www.w3.org/1999/xlink" x="0px" y="0px"
	 viewBox="0 0 512 512" style="enable-background:new 0 0 512 512;" xml:space="preserve">
<path d="M256,6c6.9,0,12.8,2.4,17.7,7.3c4.9,4.9,7.3,10.8,7.3,17.7v200h200c6.9,0,12.8,2.4,17.7,7.3c4.9,4.9,7.3,10.8,7.3,17.7
	c0,6.9-2.4,12.8-7.3,17.7c-4.9,4.9-10.8,7.3-17.7,7.3H281v200c0,6.9-2.4,12.8-7.3,17.7c-4.9,4.9-10.8,7.3-17.7,7.3
	c-6.9,0-12.8-2.4-17.7-7.3c-4.9-4.9-7.3-10.8-7.3-17.7V281H31c-6.9,0-12.8-2.4-17.7-7.3C8.4,268.8,6,262.9,6,256
	c0-6.9,2.4-12.8,7.3-17.7c4.9-4.9,10.8-7.3,17.7-7.3h200V31c0-6.9,2.4-12.8,7.3-17.7C243.2,8.4,249.1,6,256,6z"/>
</svg>
