<?xml version="1.0" encoding="utf-8"?>
<!DOCTYPE svg PUBLIC "-//W3C//DTD SVG 1.1//EN" "http://www.w3.org/Graphics/SVG/1.1/DTD/svg11.dtd">
<svg version="1.1" id="Layer_1" xmlns="http://www.w3.org/2000/svg" xmlns:xlink="http://www.w3.org/1999/xlink" x="0px" y="0px"
	 width="512px" height="512px" viewBox="0 0 512 512" enable-background="new 0 0 512 512" xml:space="preserve">
<path fill="#9E9E9E" d="M479.869,387.691c3.614,3.498,8.302,5.502,13.31,5.502c5.01,0,9.715-1.897,13.311-5.502
	c3.525-3.301,5.511-8.202,5.511-13.211c0-4.902-2.005-9.705-5.511-13.203l-237.071-237.18c-7.398-7.316-19.313-7.316-26.62,0
	L5.492,361.277C1.995,364.865,0,369.578,0,374.578s1.904,9.705,5.492,13.318c3.613,3.498,8.318,5.492,13.318,5.492
	s9.715-1.904,13.301-5.492L256.009,164.01L479.869,387.691z"/>
</svg>
