<?xml version="1.0" encoding="utf-8"?>
<!DOCTYPE svg PUBLIC "-//W3C//DTD SVG 1.1//EN" "http://www.w3.org/Graphics/SVG/1.1/DTD/svg11.dtd">
<svg version="1.1" id="Layer_1" xmlns="http://www.w3.org/2000/svg" xmlns:xlink="http://www.w3.org/1999/xlink" x="0px" y="0px"
	 width="512px" height="512px" viewBox="0 0 512 512" enable-background="new 0 0 512 512" xml:space="preserve">
<g>
	<path fill="#757575" d="M432.838,79.162c-97.55-97.549-256.127-97.549-353.677,0c-97.548,97.549-97.548,256.127,0,353.676
		c97.549,97.549,256.127,97.549,353.677,0C530.387,335.289,530.387,176.613,432.838,79.162z"/>
	<path fill="#FFFFFF" d="M354.623,354.623c-7.519,7.52-19.725,7.52-27.244,0L256,283.146l-74.798,74.798
		c-7.518,7.519-19.724,7.519-27.243,0c-7.519-7.519-7.519-19.725,0-27.244l74.797-74.797l-71.379-71.38
		c-7.519-7.519-7.519-19.725,0-27.243s19.725-7.519,27.243,0L256,228.659l68.059-68.06c7.52-7.519,19.726-7.519,27.244,0
		c7.52,7.519,7.52,19.725,0,27.244l-68.06,68.06l71.38,71.38C362.142,334.898,362.142,347.104,354.623,354.623z"/>
</g>
</svg>
